<svg height="69" viewBox="0 0 85 69" width="85" xmlns="http://www.w3.org/2000/svg"><g fill="none" fill-rule="evenodd" transform="translate(.8 .6)"><path d="m12.3907 20.219699 28.6931 13.0703987 11.12615-5.0361764-28.3611-13.1988381zm53.7093 9.5315553v10.7314497l-8.3 3.3799841v-10.3292315l-12.4417 5.6716134-.0083 19.19493 29.05-13.1481384v-19.2828096zm-29.05 9.4504357-29.05-13.236018v19.2861896l29.05 13.1481384zm23.64255-14.7840507 9.3126-4.2148403-28.72215-13.002799-8.93495 4.0255611z"/><path d="m83.17088 19.9701562c-.01248-.2420319-.0416-.4874254-.12064-.7193727-.02912-.0840389-.08736-.1647162-.1248-.2487551-.08736-.1916086-.1664-.3798556-.2912-.5546565-.06656-.090762-.15808-.1647162-.23712-.2521166-.13312-.15127-.26208-.3059015-.42432-.4370021-.09568-.0739542-.22048-.1344622-.32448-.2050548-.16224-.1075698-.312-.2252242-.4992-.3159862-.01664-.0100847-.03744-.0100847-.05824-.0201693-.01248-.0067231-.0208-.0134462-.03328-.0201693l-37.35264-16.77415809c-1.25216-.5647412-2.77472-.56137964-4.0352-.00336156l-37.52736 16.77415805c-.01248.0100847-.02496.0235309-.04576.0336155-.01248.0033616-.02912.0067232-.0416.0134463-.1456.0672311-.25376.1647161-.39104.2453935-.14976.0907619-.30784.1714393-.44096.2756474-.1248.1042082-.22048.2252242-.32864.3428786-.11232.1176544-.23712.2218626-.32864.3496017-.10816.1445469-.1664.3092631-.24544.4672561-.05824.1109313-.13312.2151395-.17056.3361555-.07904.2252242-.104.4672561-.12064.7059265-.00416.0571464-.02912.1075697-.02912.1680777v.0033616.0033615 26.8924378c0 1.2202443.81952 2.3463652 2.1424 2.9379988l37.34848 16.7640734.00416.0033615c.00416 0 .00416 0 .00832.0033616l.0832.0369771c.17888.0806773.3744.1243775.5616.181524.13312.0437002.26208.1008466.40352.1311006.33696.0705926.69472.1109313 1.04832.1109313s.71136-.0403387 1.05664-.1109313c.13728-.030254.26624-.0874004.40352-.1311006.1872-.0571465.38272-.0974851.5616-.181524l.0832-.0369771c.00416-.0033616.00416-.0033616.00832-.0033616l.00416-.0033615 37.34848-16.7640734c1.31456-.5916336 2.13408-1.7177545 2.13408-2.9379988v-26.8924378-.0033615-.0033616c0-.0571464-.02496-.1042082-.02912-.1613546zm-41.68736 13.1840176-28.76224-12.9991321 11.48992-5.1364556 28.42944 13.1268712zm.19968-25.94784087 28.79136 12.93190097-9.33504 4.1918588-28.4128-13.1201481zm-33.3632 18.66335177 29.12 13.1638483v19.0936308l-29.12-13.0764478zm37.44 32.2574791.00832-19.0902692 12.47168-5.6406889v10.2729113l8.32-3.3615548v-10.6729362l8.32-3.7615797v19.1776697z" fill="#fe6503" fill-rule="nonzero"/></g></svg>