<svg height="77" viewBox="0 0 60 77" width="60" xmlns="http://www.w3.org/2000/svg"><g fill="none" transform="translate(.8 .6)"><g fill="#fe7d71"><path d="m35.4666667 64.7499091v-.8706764-5.4792327h-13.3333334v5.4792327.8706764l-.5312333.6980073c-.5326667.6992836-.8021 1.4381672-.8021 2.1975709 0 2.7946472 3.664 5.1545127 8 5.1545127s8-2.3598655 8-5.1545127c0-.7594037-.2695-1.4982873-.8021667-2.1975709z"/><path d="m22.4 53.6h12.8v2.4h-12.8z"/><path d="m35.2 35.2615385v-6.4615385h-5.12256-2.55488-5.12256v16.8h12.8z"/><path d="m22.4 48.8h12.8v2.4h-12.8z"/><path d="m4.8 30.8c0 1.1028333.8783346 2 1.95901888 2h12.44098112v-4h-14.4z"/><path d="m52 30.8v-2h-14.4v4h12.4409483c1.0793731 0 1.9590517-.8971667 1.9590517-2z"/><path d="m31.2 25.1976v-2.3952c0-.66333-.628915-1.2024-1.4028-1.2024h-2.7944c-.773955 0-1.4028.53907-1.4028 1.2024v2.3952c0 .66339.628845 1.2024 1.4028 1.2024h2.7944c.773885 0 1.4028-.53901 1.4028-1.2024z"/><path d="m52.0500013 27.0170582c1.1971948-3.5380193 3.7705152-13.6208273 1.3438239-17.72136698-1.5238991-2.57452776-3.2576316-4.26093453-4.5938252-5.29569122.8693461 5.35842513 2.3248586 15.6127892 1.2381442 18.4154169-1.0457333 2.6922982-.9139834 3.7396594-.9128389 3.749666.0434928.1679319.0509959.333298.0286137.4923778l2.8725873.5425393c.0111593-.061451.0023845-.1227737.023495-.1829418z"/><path d="m8.48957566 26.0899663-.00127171.0012828c-.00737592 0 .08828845-1.0636273-.92644052-3.6755676-1.08667595-2.8024728.36879581-13.05626983 1.23813657-18.4156815-1.3361536 1.03485983-3.06990724 2.72101299-4.59379698 5.29668123-2.42667646 4.10031297.14662813 14.18256347 1.34254394 17.72038707.02111038.0601648.01246276.1214841.0236538.1829317l2.90598385-.5487951c-.03357313-.181681-.0385328-.3707382.01119105-.5612386z"/></g><path d="m58.2487476 39.6347668c-.3362129-.6380106-1.1301035-.8811973-1.7682599-.546298l-5.7330324 3.0042803h-12.7790692v-6.5206252h12.4224321c2.5264738 0 4.5746166-2.0491391 4.5746166-4.5644376v-2.7062877c.0217661-.0459052.0549881-.0852898.0716154-.1349769.1969098-.5743367 4.7843569-14.1377587 1.1533426-20.19489787-3.5442772-5.91564158-8.0716302-7.79918936-8.2634339-7.87691522-.4397738-.17579605-.9435695-.10446041-1.3168339.19614041-.3707769.29799257-.5485717.77422643-.4641257 1.24296157.8054446 4.476507 1.7797813 11.08884481 2.0648029 15.59472721-4.2869765-3.7734858-6.368374-8.4156493-6.3133859-14.14662677.0063826-.72095292-.5741346-1.31051525-1.2965734-1.31693806-.005106 0-.0089028 0-.0126669 0-.7173655 0-1.3028578.57567339-1.3092403 1.29137721-.0703389 7.27206202 2.8382693 13.00303952 8.8923602 17.52170232.0268067.0203444.0587521.0267346.0855916.0445685-.0383608.5056419-.1048702.9079644-.2084311 1.1729626-.9870363 2.511484-1.144276 3.9786247-1.1199242 4.747765h-8.9601461-2.6184806-1.5496495c.1457184-.4101147.2404092-.845562.2404092-1.3067332v-2.6030336c0-1.266012-.6098768-2.3751703-1.5394375-3.0897004l2.9189513-4.7491018 2.2055462 2.6082501c.4628165.5476021 1.2899945.621546 1.8449815.1566254.5522375-.463486.6238857-1.2862911.1572397-1.837773l-3.3753524-3.9912747c-.2711437-.3209451-.6827361-.4928288-1.0996309-.459704-.4193497.0318206-.7978511.2622595-1.0176725.6189377l-4.1975554 6.8287573h-2.3346046l-4.1987336-6.8287573c-.2199524-.3566782-.5984865-.5871171-1.0178362-.6189377-.4333585-.0331248-.8297965.140063-1.0995.459704l-3.3741741 3.9912747c-.4666133.5514819-.3949978 1.374287.1573707 1.837773.5573436.4660943 1.382034.3922808 1.8448505-.1566254l2.204237-2.6082501 2.9433031 4.7848348c-.906518.7169753-1.4959052 1.810908-1.4959052 3.0539674v2.6030336c0 .4611712.0946253.8966185.2403437 1.3067332h-1.5726594-2.5954053-8.6673345c.024221-.7704444-.1317095-2.2375851-1.11874581-4.747765-.09596732-.2432193-.15723977-.6151557-.19687702-1.0660244.1009097-.0407865.20198305-.0840834.29402265-.1515067 6.05392718-4.5186628 8.96266638-10.2496403 8.89236018-17.52170232-.0064153-.71570382-.5919076-1.29137721-1.3092403-1.29137721-.0037968 0-.0089029 0-.0128306 0-.7223078.00642281-1.302825.59598514-1.2964097 1.31693806.0562973 5.8303518-2.1070914 10.53103787-6.54882005 14.33898517.26983443-4.5071865 1.26328595-11.24807842 2.08025195-15.78708561.0844787-.46873514-.0933489-.944969-.464093-1.24296157-.3708096-.30060082-.8757836-.37193646-1.31686661-.19614041-.19180371.07772586-4.7191567 1.96127364-8.26340114 7.87691522-3.18996401 5.32092797-.03836074 16.43406207.90785997 19.44476507v3.5913974c0 2.5152985 2.04827373 4.5644376 4.57458383 4.5644376h12.44554015v6.5206252h-11.9865205l-5.73303239-3.0042803c-.6379928-.3348993-1.43070508-.0917126-1.76825996.546298-.33752215.6381084-.09073035 1.4264194.54857169 1.7613513l6.01936324 3.1546784c.18800691.099244.39761628.1502026.60997506.1502026h12.30990286v1.3041251 1.304125h-9.4037821c-.36436162 0-.71340509.1515719-.9614734.419048l-3.68868637 3.9735386c-.49096512.5284314-.45767768 1.3536818.07292468 1.8427286.25189784.2318409.57017416.3465061.88861413.3465061.35162922 0 .70316024-.1413672.96147335-.4190154l3.29994021-3.5545558h8.8309895v1.304125 2.6082501h-9.4037821c-.36436162 0-.71340509.1515719-.9614734.419048l-3.68868637 3.9735385c-.49096512.5284315-.45767768 1.3536818.07292468 1.8427287.25189784.2318408.57017416.346506.88861413.346506.35162922 0 .70316024-.1413671.96147335-.4190153l3.29994021-3.5545558h8.8309895v2.60825 5.458448c-.833626 1.111897-1.3092403 2.3905916-1.3092403 3.7519677 0 4.2766172 4.6896988 7.7432098 10.4739225 7.7432098s10.4739225-3.4665926 10.4739225-7.7432098c0-1.3613761-.4756798-2.6400707-1.3092404-3.7519677v-8.0551891h8.6328361l3.2999402 3.5558273c.2581822.2775178.6098441.418885.9613751.418885.3184073 0 .6368472-.1146326.8885814-.3464083.5306351-.4890468.5639225-1.3142646.0729574-1.8428264l-3.6886863-3.9747123c-.2479702-.2675087-.5958353-.4190154-.9613752-.4190154h-9.2056287v-3.9850149h8.6328361l3.2999402 3.5545232c.2581822.2776482.6098441.4189828.9613751.4189828.3184073 0 .6368472-.1146.8885814-.346343.5306351-.4890469.5639225-1.3142972.0729574-1.8428591l-3.6886863-3.9735386c-.2479702-.267476-.5970136-.4190153-.9613752-.4190153h-9.2056287v-2.5471193h13.1025825c.2122278 0 .4219681-.0509586.6098441-.1502026l6.0194942-3.1546784c.639302-.3349319.8859956-1.1232429.5484407-1.7613513zm-52.88348912-12.1254937c-.01152131-.0624676-.00261848-.1248048-.02435187-.1859683-1.23120959-3.5965486-3.88045735-13.8461563-1.38216499-18.01453116 1.56886266-2.61842225 3.3537827-4.33256419 4.72936876-5.38460186-.89499667 5.44837358-2.39342221 15.87237542-1.27467636 18.72136692 1.04467557 2.6552964.94618797 3.7365791.95378156 3.7365791l.00130924-.0013041c-.05119129.1936625-.04608526.385858-.01152131.5705547zm14.25068802 5.4546007h-12.42246485c-1.07907587 0-1.95610322-.8775131-1.95610322-1.9561875v-1.9561876h14.37856807zm2.6415559 20.8660006h13.0924031v2.6082501h-13.0924031zm27.3201467-26.8721158c.0230426-.1617115.0153181-.3298132-.0294579-.5005232-.0011783-.0101722-.1368156-1.0748599.9397727-3.8116967 1.1187785-2.8489915-.3796797-13.27299334-1.2746764-18.72006279 1.3756188 1.05187465 3.1605061 2.76617961 4.7293688 5.38329773 2.4982923 4.16837486-.1509554 14.41798256-1.3834743 18.01453116-.0217334.0611635-.0126996.1235007-.0241882.1859683zm-11.609263 2.0937401h14.3785681v1.9561876c0 1.0786744-.8783693 1.9561875-1.956136 1.9561875h-12.4224321zm-11.7831627-3.9149833v-2.6030336c0-.7208877.588078-1.3067333 1.3118588-1.3067333h2.6132436c.7237153 0 1.3118588.5858456 1.3118588 1.3067333v2.6030336c0 .7209529-.5881435 1.3067332-1.3118588 1.3067332h-2.6132436c-.7237808 0-1.3118588-.5857803-1.3118588-1.3067332zm-3.927721 3.9149833h5.2395798 2.6132436 5.2395797v6.5206252 10.4330003h-13.0924031zm0 19.5618756h13.0924031v2.60825h-13.0924031zm6.5462016 24.7783756c-4.2576495 0-7.8554419-2.3509136-7.8554419-5.1349597 0-.7565229.2645648-1.4926037.7876063-2.1892347l.521634-.6953595v-.8673735-5.458448h13.0924031v5.458448.8673735l.5215686.6953595c.5230415.696631.7876717 1.4327118.7876717 2.1892347 0 2.7840461-3.5977923 5.1349597-7.8554418 5.1349597z" fill="#fd5a5a"/></g></svg>