<svg height="72" viewBox="0 0 65 72" width="65" xmlns="http://www.w3.org/2000/svg"><g fill="none" transform="translate(.8)"><path d="m63.0587667 60.6731339-8.714927-2.2731339-21.5438397 5.6190813 27.3728326 7.1386635c.107902.0282937.2182159.0422552.3285298.0422552.2206279 0 .4401132-.0560932.6347177-.1653143.2913354-.1640788.5046005-.4337957.5913029-.7504629l2.2290014-8.0979314c.1815292-.6594041-.2201201-1.3363527-.8976177-1.5131575z" fill="#bc9a67"/><path d="m3.82765036 44.0434772c-.67992906-.1797702-1.37293369.2147359-1.55459509.8735229l-2.22970016 8.09794c-.08733966.3167911-.04151173.6539684.12656633.9375236.16858585.2835552.44558458.491125.77107713.575512l8.71327318 2.2720243 21.54572825-5.6184695z" fill="#bc9a67"/><path d="m63.0346187 55.1846768c.6948793-.1877313 1.1068332-.9070181.9206467-1.6076631l-2.2861881-8.6043979c-.0889268-.3364723-.3076635-.6230581-.6064733-.7973988-.2981588-.1730279-.6536058-.2205515-.9879603-.1307555l-28.0751034 7.5851347-22.09786538 5.9698573-8.93656204 2.4147767c-.33383372.0896647-.61793091.3102163-.79083699.6115054-.17238527.3012892-.2193876.6595541-.12980975.9961578l2.2868391 8.6043978c.15571963.5864308.68146868.9737088 1.25682407.9737088.11132131 0 .22511642-.0148347.33760953-.0455544l28.07380146-7.5844783 22.0965633-5.9705138z" fill="#a48659"/><path d="m29.6 47.2c10.1458914 0 18.4-8.2335021 18.4-18.3540643 0-9.8190311-16.7302-27.69431649-17.4418857-28.45037284-.4966686-.52741715-1.41956-.52741715-1.9162286 0-.7116857.75605635-17.4418857 18.63134174-17.4418857 28.45037284 0 10.1205622 8.2541086 18.3540643 18.4 18.3540643zm.9581143-24.5058222c.7091886.7527788 6.9276 7.4716773 6.9276 11.4950193 0 4.3375898-3.5372686 7.8660276-7.8857143 7.8660276s-7.8857143-3.5284378-7.8857143-7.8660276c0-4.023342 6.2184114-10.7422405 6.9276-11.4950193.4966686-.5274172 1.41956-.5274172 1.9162286 0zm-9.90656-7.0735253 5.2571428-7.21052527c.4260915-.58444584 1.2488343-.7156774 1.8360572-.28868321.5865657.42568319.7168114 1.24571656.2894057 1.83147342l-5.2571429 7.21052526c-.25668.3526602-.6578.5396095-1.0640457.5396095-.2675885 0-.5383314-.0812823-.7720114-.2509263-.5865657-.4256832-.7168114-1.2457166-.2894057-1.8314734z" fill="#f8a131"/><g fill="#eb4548"><path d="m29.6 41.6c4.4114667 0 8-3.4290299 8-7.6444152 0-3.909991-6.3085333-10.4395957-7.028-11.1711663-.5038667-.512558-1.4401333-.512558-1.944 0-.7194667.7315706-7.028 7.2611753-7.028 11.1711663 0 4.2153853 3.5885333 7.6444152 8 7.6444152z"/><path d="m22.1321043 17.6c.4121172 0 .8190347-.1825234 1.0794245-.5268346l5.3331248-7.0398207c.433583-.57188945.3014549-1.37250906-.2935885-1.78811448-.5957101-.41688538-1.4303441-.28876064-1.8625939.28184883l-5.3331248 7.03982075c-.433583.5718894-.3014549 1.372509.2935885 1.7881144.2370574.1656278.5117134.2449858.7831694.2449858z"/></g></g></svg>