<svg height="501" viewBox="0 0 393 501" width="393" xmlns="http://www.w3.org/2000/svg"><g fill="none"><path d="m236.649256 492h-236.649256v-2h237z" fill="#3f3d56"/><path d="m81.8461538 463.082803-13.8461538.917197 1.8461538-144h34.1538462z" fill="#a0616a"/><path d="m147.883533 463.082803-13.883533.917197 1.851138-144 22.148862.005503z" fill="#a0616a"/><path d="m162.162602 448.119252c-14.425103 6.55736-27.983715 6.223016-40.889574.6967l-6.882784-164.608959-19.7140168 163.16807c-14.4150701 3.55479-28.9852901 3.539223-43.6762272.744189 3.383661-24.442788 17.8283867-173.24828 16.5365854-200.540697l96.4634146-4.578555z" fill="#2f2e41"/><path d="m78.9999368 501c-3.8566157 0-7.5424207-1.565109-10.1876741-4.32601-2.6452535-2.760901-4.015637-6.47303-3.7877807-10.260434l1.3354233-22.197424c5.3772392-9.484519 11.9039781-9.522846 19.51074-.685509l6.439443 19.426729c1.3901815 4.193951.6541645 8.789229-1.9795852 12.359423s-6.8464952 5.683225-11.3305663 5.683225z" fill="#2f2e41"/><path d="m144.999937 501c-3.856616 0-7.542421-1.565109-10.187674-4.32601-2.645254-2.760901-4.015637-6.47303-3.787781-10.260434l1.335423-22.197424c5.377239-9.484519 11.903978-9.522846 19.51074-.685509l6.439443 19.426729c1.390182 4.193951.654165 8.789229-1.979585 12.359423s-6.846495 5.683225-11.330566 5.683225z" fill="#2f2e41"/><circle cx="125.5" cy="37.5" fill="#a0616a" r="26.5"/><path d="m125 88-43-17.3829787c10.2907234-5.0441196 17.277766-14.418147 22.87234-25.6170213h19.212766c-.916458 17.0881817-1.654502 33.7740023.914894 43z" fill="#a0616a"/><path d="m167 249.24-102.7740283 2.76c1.2516409-49.476882-.9440712-100.386904-6.0962066-152.525972-1.1880684-12.0854597 5.878781-23.4611239 17.221486-27.721808l9.9800923-3.75222 40.3755106 11.04 19.055406 14.646952c5.185479 3.9988381 8.026247 10.337576 7.565013 16.88016-2.884821 42.23846 3.556413 89.257471 14.672727 138.672888z" fill="#fe6503"/><path d="m178.750809 282.981992c-5.775672.325749-10.803003-3.804631-11.441555-9.400211l-2.309254-20.235733 12.341815-3.346048 10.190596 17.103071c1.895016 3.180431 1.958765 7.089895.168401 10.327237-1.790365 3.237343-5.178464 5.33898-8.950003 5.551684z" fill="#a0616a"/><path d="m189 255.083799-23.960784.916201-18.431373-73.296089-4.607843-90.703911c8.675499 1.0781182 15.51237 7.865563 16.609072 16.489l8.273272 65.052899z" fill="#fe6503"/><path d="m75.9090909 119-.9090909 60.814286 40 68.185714-35.4545455-70.028571z" fill="#000" opacity=".2"/><path d="m64 210 24 41-8.5052341-.457436z" fill="#000" opacity=".2"/><path d="m119.212168 202c-2.325194.002756-4.212168 1.889981-4.212168 4.218824v261.562444c0 2.328825 1.886992 4.216022 4.212168 4.218732h269.57571c2.325158-.002736 4.212122-1.889925 4.212122-4.218732v-261.56249c0-2.328825-1.886946-4.216042-4.212122-4.218778z" fill="#e6e6e6"/><path d="m125 461h257v-248h-257z" fill="#fff"/><g fill="#e6e6e6"><path d="m148.098832 253c-1.708641 0-3.098832 2.467398-3.098832 5.5 0 3.032593 1.390191 5.5 3.098832 5.5h116.802327c1.70864 0 3.098841-2.467398 3.098841-5.5 0-3.032611-1.390201-5.5-3.098841-5.5z"/><path d="m148.098832 286c-1.708641 0-3.098832 2.467398-3.098832 5.5 0 3.032611 1.390191 5.5 3.098832 5.5h116.802327c1.70864 0 3.098841-2.467398 3.098841-5.5 0-3.032593-1.390201-5.5-3.098841-5.5z"/><path d="m148.098832 320c-1.708641 0-3.098832 2.467398-3.098832 5.5 0 3.032593 1.390191 5.5 3.098832 5.5h116.802327c1.70864 0 3.098841-2.467398 3.098841-5.5 0-3.032611-1.390201-5.5-3.098841-5.5z"/><path d="m148.098832 353c-1.708641 0-3.098832 2.467398-3.098832 5.5 0 3.032611 1.390191 5.5 3.098832 5.5h116.802327c1.70864 0 3.098841-2.467398 3.098841-5.5 0-3.032593-1.390201-5.5-3.098841-5.5z"/><path d="m324.5 253c-3.037567 0-5.5 2.462434-5.5 5.5s2.462433 5.5 5.5 5.5h22c3.037567 0 5.5-2.462434 5.5-5.5s-2.462433-5.5-5.5-5.5z"/><path d="m324.5 286c-3.037567 0-5.5 2.462434-5.5 5.5s2.462433 5.5 5.5 5.5h22c3.037567 0 5.5-2.462434 5.5-5.5s-2.462433-5.5-5.5-5.5z"/><path d="m324.5 319c-3.037567 0-5.5 2.462434-5.5 5.5s2.462433 5.5 5.5 5.5h22c3.037567 0 5.5-2.462434 5.5-5.5s-2.462433-5.5-5.5-5.5z"/><path d="m324.5 352c-3.037567 0-5.5 2.462434-5.5 5.5s2.462433 5.5 5.5 5.5h22c3.037567 0 5.5-2.462434 5.5-5.5s-2.462433-5.5-5.5-5.5z"/></g><path d="m318.000011 407c-3.865999 0-7.000011 3.134007-7.000011 7s3.134012 7 7.000011 7h27.999978c3.865999 0 7.000011-3.134007 7.000011-7s-3.134012-7-7.000011-7z" fill="#fe6503"/><path d="m145 389h207v2h-207z" fill="#e6e6e6"/><path d="m121.978502 278.933975c-5.115342 2.460499-11.280521.525683-14.031161-4.403394l-9.947341-17.825429 9.902577-7.705152 15.884599 11.985209c2.953856 2.228726 4.528606 5.81551 4.159859 9.474848-.368747 3.659337-2.628186 6.867211-5.968533 8.473918z" fill="#a0616a"/><path d="m115 250-20.3397812 11-46.2267755-78.833349-5.3271737-69.32392c-1.2275133-15.9739694 8.2784211-30.8488058 23.3706306-36.5702406l5.9944571-2.2724904 3.698142 104.50002z" fill="#fe6503"/><path d="m148.239524 8.58298474.294702 4.45732616-2.276033-6.12016237c-5.724149-4.1956729-12.5659-6.56134887-19.63889-6.790549l-.000055-.00005531c-8.530026-.85687213-16.9318 2.57477503-22.465905 9.17604559-5.5341055 6.60127059-7.4914108 15.52628859-5.2337325 23.86503289l.3164582 3.8293773 7.3129363-10.1393576h.000055c6.699378-6.1253461 16.097696-8.2508937 24.749718-5.59746 3.195242.9831998 6.267893 2.3332847 9.157524 4.0237027 4.409672 2.6629321 8.388703 5.9914133 11.7986 9.8695953l.635265-4.3558588c4.269667-8.0986367 1.727983-16.3199873-4.650643-22.21763686z" fill="#2f2e41"/></g></svg>