<svg height="364" viewBox="0 0 451 364" width="451" xmlns="http://www.w3.org/2000/svg" xmlns:xlink="http://www.w3.org/1999/xlink"><linearGradient id="a"><stop offset="0" stop-color="#808080" stop-opacity=".25"/><stop offset=".54" stop-color="#808080" stop-opacity=".12"/><stop offset="1" stop-color="#808080" stop-opacity=".1"/></linearGradient><linearGradient id="b" x1="50.017549%" x2="50.017549%" xlink:href="#a" y1="100%" y2=".062598%"/><linearGradient id="c" x1="50.00553%" x2="50.00553%" xlink:href="#a" y1="99.999296%" y2="-.005335%"/><g fill="none" fill-rule="nonzero"><ellipse cx="376.5" cy="337" fill="#fe6503" opacity=".1" rx="50.5" ry="9"/><ellipse cx="224.5" cy="328.5" fill="#fe6503" opacity=".1" rx="74.5" ry="5.5"/><path d="m179.342495 31.5752194c13.336576-11.9132294 34.272292-14.3391344 53.312454-13.3891296 59.845345 2.9687648 113.864401 31.939669 160.59319 64.6936278 16.924588 11.8750596 33.569921 24.6365074 44.549748 40.9689554 22.35315 33.241684 15.722943 79.308433-15.359064 106.676204-10.577868 9.330404-23.394013 16.459681-36.557111 22.791633-23.398244 11.260101-48.658192 20.297869-75.20441 22.867971-18.938614 1.836393-38.114173.343529-56.942778-2.21385-52.601621-7.150482-104.234309-22.965517-147.50202-50.019447-18.9809258-11.87506-36.874447-26.617098-44.6978381-45.803801-7.823391-19.186704-2.8137128-43.522093 16.564941-54.883981 8.0391796-4.69913 17.6015721-6.819677 26.9862561-8.81299 13.810465-2.934837 27.84518-5.827262 40.310139-11.790238 12.879612-6.1665488 28.111742-18.0797782 25.573053-31.7106501-2.750245-14.6360109-4.946211-27.4780395 8.37344-39.3743045z" fill="#fe6503" opacity=".1"/><path d="m127 92h-4" fill="#fe6503"/><g fill="#000" opacity=".1" transform="translate(158 67)"><path d="m70.9490596 223.844805c1.6250783 2.756169 4.1727272 4.533117 7.0420062 4.533117 4.900627 0 8.8871474-5.178896 8.8871474-11.573377 0-6.39448-3.9992163-11.531168-8.8871474-11.531168-2.3064263 0-4.4097178 1.148052-5.9882445 3.03474-.5986037.721782-1.1060109 1.514192-1.510815 2.359415l-.0846395.502273s-1.8916928 1.612338-4.4689655.130844v-37.488961h-36.6996866c-.6028549-.7876-.7697161-1.824158-.4443573-2.760389.2741183-.856918.8660065-1.577081 1.6547022-2.013312 2.7634796-1.620779 4.549373-4.161688 4.549373-7.023377 0-4.887662-5.1968652-8.863636-11.6040752-8.863636-6.4072101 0-11.6040753 3.963312-11.6040753 8.863636 0 2.300325 1.1553292 4.402273 3.047022 5.976624.7230061.594704 1.5160017 1.099291 2.361442 1.502597l.0507837.084416c1.1393046 1.099508 1.426001 2.811711.7067398 4.220779h-16.55125393v69.423377c0 9.09118 7.38940688 16.461039 16.50470223 16.461039h48.0413793v-36.838961c.7983618-.755872 1.9546865-1.000554 2.9920062-.633117.8532506.269041 1.5709631.853471 2.0059562 1.633441z"/><path d="m9.18338558 172.351299h5.74702192c-2.8311929-2.169371-4.5030212-5.518193-4.5324451-9.078896 0-6.580195 5.7554859-11.911039 12.8525078-11.911039 7.097022 0 12.8567398 5.330844 12.8567398 11.911039-.0294239 3.560703-1.7012522 6.909525-4.5324451 9.078896h34.4482759v-36.986689c.8025296-.747931 1.9541106-.991609 2.9920062-.633116.8613945.271298 1.5854988.862043 2.022884 1.650324 1.6208464 2.756169 4.1684953 4.533117 7.0420063 4.533117 4.900627 0 8.8871473-5.178896 8.8871473-11.569156s-3.9695924-11.573376-8.8871473-11.573376c-2.3106583 0-4.4139498 1.152272-5.9924765 3.03474-.5967701.723113-1.1040291 1.515291-1.510815 2.359415l-.0804076.05065c-1.1684258 1.216539-3.0258926 1.463663-4.4731974.59513v-37.4805198h-35.3327587c-.6028549-.7876007-.7697161-1.8241581-.4443573-2.7603896.2721896-.8579613.8646019-1.5787621 1.6547022-2.0133117 2.7634796-1.6165585 4.545141-4.1616883 4.545141-7.0233766 0-4.8876624-5.1926332-8.8636364-11.5998432-8.8636364-6.4072101 0-11.6040753 3.9633117-11.6040753 8.8636364 0 2.3045454 1.1553292 4.4022727 3.04279 5.9766233.7250315.5951913 1.519311 1.1011084 2.365674 1.5068182l.0507837.0801948c1.1393046 1.0995084 1.426001 2.8117115.7067398 4.2207792h-10.22445142v-1.8993506h7.54984322c-2.8254474-2.1661751-4.4952457-5.5078319-4.5282131-9.062013 0-6.5801948 5.7554859-11.9152597 12.8567398-11.9152597s12.8525078 5.3350649 12.8525078 11.9152597c-.0341381 3.5622769-1.7124752 6.9100709-4.549373 9.0746753h32.6285266v-37.4383117c.8006311-.7548219 1.9574827-.9992691 2.9962383-.6331168.8596077.272627 1.5819352.8631572 2.018652 1.6503246 1.6208464 2.7561689 4.1727273 4.5331169 7.0420063 4.5331169 4.9006269 0 8.8871473-5.1788961 8.8871473-11.5733766s-3.9695925-11.5691558-8.8871473-11.5691558c-2.3106583 0-4.4139499 1.1480519-5.9924765 3.0347402-.5986037.7217825-1.1060109 1.5141923-1.5108151 2.3594156l-.0804075.5022727s-1.8916928 1.6123377-4.4731975.1308442v-34.91850651h-48.0202194c-9.11529533 0-16.5047022 7.36985817-16.5047022 16.46103891v17.8201299h-.24968652c-.53523145 0-.96912226.432743-.96912226.9665585v8.4415584c.0023179.532855.43485387.9642467.96912226.9665584h.24968652v8.6188312h-.32586207c-.53592034-.000005-.97102414.4320609-.97335423.9665585v16.1191558c.00233009.5344975.43743389.9665635.97335423.9665584h.32586207v6.3311689h-.26661442c-.53523145 0-.96912226.4327429-.96912226.9665584v5.1915585h-.21160808v10.9402597c-.00112199.2566915.10061834.5031955.28260983.6847056.1819915.18151.42914941.2829812.68652176.2818528h.2877743v76.1175328z"/><path d="m134.758777 60.2896104c0-.5345026-.433207-.9684553-.969122-.9707792h-.584012v-1.0594156h-.317398v-42.1022727c.001122-4.1981692-1.67052-8.22471388-4.646948-11.19326788-2.976428-2.96855399-7.013654-4.6357742-11.222958-4.6346548h-47.6097183v32.07792268c2.2043206-2.9177248 5.647435-4.6425322 9.3103448-4.6639611 6.6484326 0 12.0399687 5.7444805 12.0399687 12.8269481 0 7.0824675-5.3915361 12.826948-12.0399687 12.826948-3.6632232-.0201263-7.1068847-1.7452077-9.3103448-4.663961v35.5938312h38.5109713c-2.827324-2.1753809-4.495384-5.5260187-4.523981-9.0873377 0-6.5886364 5.74279-11.9279221 12.831348-11.9279221 3.150595-.0174952 6.205255 1.0802903 8.620533 3.098052 2.685592 2.1401093 4.249279 5.3824134 4.249279 8.8108766s-1.563687 6.6707673-4.249279 8.8108766v.2827922h8.358151v-.0295454h1.553134z"/><path d="m121.973981 170.456169v-4.220779c.174453-.253729.334121-.51726.478213-.789286.566789-1.028428.866491-2.181983.871787-3.35552-.001314-.782309-.135828-1.558716-.397805-2.296103-.230988-.656828-.551384-1.278881-.952195-1.848702-1.95094-2.798376-5.806269-4.706169-10.249843-4.706169-6.411442 0-11.604075 3.963312-11.604075 8.863637 0 2.304545 1.155329 4.402272 3.04279 5.976623.725031.595191 1.519311 1.101108 2.365674 1.506818l.050783.080195c1.138027 1.100178 1.424575 2.811493.70674 4.220779h-37.3344826v34.61039c2.1733536-2.900212 5.5827513-4.618364 9.2130094-4.642857 6.5976489 0 11.9426332 5.74026 11.9426332 12.818506 0 7.078247-5.3449843 12.822728-11.9426332 12.822728-3.6302581-.024494-7.0396558-1.742645-9.2130094-4.642858v27.937338h42.8402826c5.613534.000017 10.168132-4.531203 10.182131-10.12987v-68.760714 68.714285c0 5.60856-4.558695 10.155195-10.182131 10.155195h-42.8402826v6.753247h44.4357366c9.115295 0 16.504702-7.369858 16.504702-16.461039v-69.161688-1.814935h-7.918025z"/></g><path d="m178.227446 318.215532c-5.662983 0-10.253738-4.553426-10.253738-10.170361v-69.045171h-7.973708v69.514377c0 9.104758 7.441373 16.485623 16.620771 16.485623h48.379229v-6.763333z" fill="#3a3768"/><path d="m227.176782 288.22784c.854895.270958 1.572978.863555 2.004639 1.654326 1.613798 2.762852 4.143762 4.544109 6.993123 4.544109 4.866609 0 8.825456-5.191454 8.825456-11.601439s-3.954645-11.576052-8.808645-11.576052c-2.290416 0-4.379107 1.150835-5.946676 3.042098-.594449.723533-1.098334 1.517864-1.500328 2.365137l-.084052.50349s-1.878561 1.616247-4.437943.131162v-37.579861h-36.44493c-.59867-.78951-.764373-1.828581-.441273-2.767082.272216-.858996.859995-1.580905 1.643216-2.018194 2.744297-1.624709 4.517793-4.171779 4.517793-7.040406 0-4.899513-5.16079-8.885128-11.523524-8.885128-6.362733 0-11.523523 3.972922-11.523523 8.885128 0 2.305902 1.147309 4.412947 3.02587 5.991115.717987.596146 1.505478 1.101956 2.34505 1.506241l.050431.08462c1.131396 1.102174 1.416102 2.818529.701834 4.231013h-8.5733v69.122065c0 5.622158 4.527051 10.179818 10.111451 10.179818h46.123512v-30.137508c.786834-.746323 1.920316-.990854 2.941819-.634652z" fill="#fe6503"/><path d="m159 150h1v2h-1z" fill="#3a3768"/><path d="m161 150h7v2h-7z" fill="#3a3768"/><path d="m160 150h1v2h-1z" fill="#3a3768"/><path d="m159.773335 160.99985h.226665v-9.99985h-1v9.020395c-.00092.262365.080583.514143.226106.698454.145522.184312.342787.285606.547229.281001z" fill="#3a3768"/><path d="m168 151h-6.939604v8.899607c.000002.257022-.103745.503456-.288299.684802-.184553.181346-.434705.28266-.695133.281538h-.076964v76.134053h8z" fill="#3a3768"/><path d="m160 161h.072581c.245595.001128.481499-.101563.655541-.285372.174042-.18381.271878-.433592.271878-.694106v-9.020522h-1z" fill="#3a3768"/><path d="m169.217954 227.876954c0-6.599921 5.771491-11.946746 12.888248-11.946746 7.116758 0 12.892492 5.346825 12.892492 11.946746-.024291 3.57734-1.701304 6.943524-4.545049 9.123046h34.54407v-37.097567c.804761-.750173 1.959544-.994581 3.000326-.635015.86379.272113 1.589908.864628 2.02851 1.655272 1.625353 2.764432 4.180087 4.546707 7.061588 4.546707 4.914255 0 8.911861-5.194422 8.911861-11.603838 0-6.409417-3.980631-11.608071-8.911861-11.608071-2.317084 0-4.426224 1.155727-6.00914 3.043837-.59843.725282-1.107099 1.519835-1.515016 2.366489l-.080632.050801c-1.171675 1.220187-3.034307 1.468051-4.485636.596914v-37.592878h-35.431012c-.604531-.789962-.771857-1.829627-.445593-2.768665.272946-.860533.867006-1.583495 1.659303-2.019347 2.771165-1.621405 4.557781-4.174164 4.557781-7.044431 0-4.902315-5.207073-8.890208-11.6321-8.890208-6.425028 0-11.636344 3.975193-11.636344 8.890208 0 2.311454 1.158542 4.41547 3.051251 5.99454.727048.596975 1.523536 1.104409 2.372253 1.511335l.050924.080435c1.142473 1.102805 1.429967 2.820141.708706 4.233433h-10.252884v86.290049h5.763003c-2.843744-2.179522-4.520758-5.545706-4.545049-9.123046z" fill="#fe6503"/><path d="m161 143.920919c0-.244939-.097836-.479788-.271878-.652608s-.409946-.269372-.655541-.268311h-.072581v6h1z" fill="#3a3768"/><path d="m159.96875 99h-.173611c-.210884 0-.413131.1079715-.562248.3001619-.149118.1921905-.232891.4528567-.232891.7246551v8.950366c.001902.564972.356786 1.022366.795139 1.024817h.204861v-10.9955248z" fill="#3a3768"/><path d="m159.749186 119c-.412495 0-.747393.43081-.749186.96376v16.07248c.001793.53295.336691.96376.749186.96376h.250814v-18z" fill="#3a3768"/><path d="m159.98 144h-.216667c-.421577 0-.763333.412306-.763333.920912v5.079088h1z" fill="#3a3768"/><path d="m160.008522 82.4721621v17.8367449c.523179.018212.93772.444179.937397.963235v8.449429c-.001878.518173-.415187.942873-.937397.963235v8.626867h.149131c.258784 0 .506969.101929.689957.283363.182987.181434.285789.427511.285789.684097v16.134185c0 .534313-.436856.96746-.975746.96746h-.157653v6.337071h.076696c.539583-.000005.977661.432464.980007.96746v5.314691h6.915437v-67.0462204c0-5.6121391 4.587255-10.1623307 10.24746-10.1646633h13.894789v1.7659307c0 4.6221592 3.779092 8.3691596 8.440839 8.3691596h24.444772v-5.5259267h-11.253032c-.905468-.0045685-1.639668-.7287714-1.648967-1.6265151v-.354876c.002341-.9020025.739239-1.6326428 1.648967-1.6349645h11.231728v-7.7819243h-48.361194c-9.172601.0046637-16.606629 7.3774534-16.60898 16.4721621z" fill="#3a3768"/><path d="m161 108.982892v-8.961303c.000344-.5505011-.441881-1.0022733-1-1.021589v11c.555338-.021514.995575-.469282 1-1.017108z" fill="#3a3768"/><path d="m161 136.036206v-16.072448c0-.255605-.090702-.50074-.252152-.68148-.161451-.18074-.380425-.282278-.60875-.282278h-.139098v18h.131579c.229625.002208.450536-.098338.613616-.279322.16308-.180983.254805-.427403.254805-.684472z" fill="#3a3768"/><path d="m170.79038 140.943159c0-6.567263 5.715221-11.891843 12.766795-11.891843s12.762592 5.32458 12.762592 11.891843c-.033899 3.555276-1.700495 6.896491-4.517546 9.056841h32.400259v-37.364735c.79503-.753339 1.943788-.997306 2.975277-.631873.853593.272091 1.570868.861461 2.004529 1.647081 1.609507 2.750752 4.143535 4.524208 6.992741 4.524208 4.866342 0 8.824973-5.168718 8.824973-11.550632 0-6.381913-3.941821-11.5464189-8.824973-11.5464189-2.294493 0-4.38307 1.1457957-5.950554 3.0287762-.594415.720364-1.098273 1.5112164-1.500245 2.3547787l-.079845.501286s-1.878459 1.609169-4.441903.130587v-17.9873082h-24.096379c-4.589503-.0116118-8.303894-3.7443659-8.30388-8.3449314v-1.7608184h-13.695518c-2.683034.0011157-5.255613 1.0711602-7.151228 2.9744987s-2.958813 4.4838847-2.955475 7.1733759v66.8521254h7.286914c-2.809148-2.164644-4.467662-5.505194-4.496534-9.056841z" fill="#fe6503"/><path d="m214.536222 73c-.847527.0025502-1.53404.8050759-1.536222 1.7958237v.4037123c.002169.9915077.688054 1.7953695 1.536222 1.800464h10.463778v-3.9860789z" fill="#e6e8ec"/><path d="m290 124.04502v25.95498h3v-27h-1.622222c-.76 0-1.377778.467854-1.377778 1.04502z" fill="#3a3768"/><path d="m228 65h4v8h-4z" fill="#3a3768"/><path d="m228 77h4v5h-4z" fill="#3a3768"/><path d="m228 72h4v4h-4z" fill="#e6e8ec"/><path d="m292.901679 124h-.901679v25h2v-24.028224c0-.535051-.49096-.96945-1.098321-.971776z" fill="#3a3768"/><path d="m231.415414 73.5987546c.893768.2026334 1.678439 1.840587 1.678439 1.840587v.3546085s-.788867 1.633732-1.678439 1.6041813v5.4879886h18.962164c4.591529-.0023307 8.31247-3.7477138 8.312469-8.3670719v-1.7645994h14.266732c5.56525.0116403 10.070646 4.5537867 10.070634 10.1527789v49.1850424c2.662824 2.14049 4.213255 5.383371 4.213255 8.812444 0 3.429072-1.550431 6.671953-4.213255 8.812443v.282844h5.874537v-24.776159c-.00002-.033214.013375-.065011.037111-.088095.023737-.023084.055777-.035475.088771-.03433h1.972168v-43.2706794c.001112-4.1989157-1.656359-8.2261763-4.607554-11.1952581-2.951195-2.9690819-6.954194-4.6365985-11.127813-4.6354789h-44.264633v7.598754zm6.352891-.0379937c1.128594 0 2.0435.920451 2.0435 2.0558849s-.914906 2.055885-2.0435 2.055885c-1.128593 0-2.043499-.9204511-2.043499-2.055885s.914906-2.0558849 2.043499-2.0558849z" fill="#3a3768"/><path d="m238.400992 92.5922404c6.713163 0 12.157192 5.7266121 12.157192 12.7870496 0 7.060437-5.444029 12.787049-12.157192 12.787049-3.698889-.020064-7.176079-1.739779-9.400992-4.649454v35.483115h38.885921c-2.854851-2.168614-4.539152-5.50883-4.568027-9.059071 0-6.568142 5.798703-11.89082 12.956276-11.89082 3.18914-.021257 6.282023 1.074928 8.72583 3.092623v-49.0233331c0-5.580584-4.588147-10.1077969-10.255628-10.1193989h-14.528805v1.7587978c0 4.6041707-3.789293 8.3372399-8.465166 8.3395629h-22.729035v15.1475409c2.220347-2.9043809 5.687839-4.6247618 9.379626-4.6536612z" fill="#fe6503"/><path d="m231.4 76c.853334.0011845 1.557334-.7419268 1.6-1.6888897v-.3733332c-.095215-.9648657-.74302-1.7494301-1.6-1.9377771h-.4v4z" fill="#e6e8ec"/><ellipse cx="238.251661" cy="74.72089" fill="#e6e8ec" rx="2.060407" ry="2.061233" transform="matrix(.9870804 -.16022575 .16022575 .9870804 -8.894094 39.139416)"/><path d="m281 235v-4.048583c2.666667-2.370788 2.666667-5.580629 0-7.951417z" fill="#3a3768"/><path d="m281 237h8v2h-8z" fill="#3a3768"/><path d="m277.813933 234.013216c-.787014.454601-1.377429 1.20651-1.650003 2.101321-.325958.978459-.159508 2.062395.443096 2.885463h4.392974v-1.894273h-1.687982c.61186-.511057 1.176946-1.080314 1.687982-1.700441v-4.405286c-.840024 1.233819-1.927203 2.262017-3.186067 3.013216z" fill="#fe6503"/><path d="m279 237h2v-2c-.605499.729372-1.27504 1.398912-2 2z" fill="#fe6503"/><path d="m283 227.002038c-.015129-1.436231-.713764-2.834213-2-4.002038v8c1.283529-1.167175 1.981946-2.563298 2-3.997962z" fill="#3a3768"/><path d="m289 239v69.470504c0 9.128989-7.396629 16.529496-16.520833 16.529496h-44.479167v-6.781332h42.882153c5.628932 0 10.192083-4.565543 10.192083-10.197427v-69.021241z" fill="#3a3768"/><path d="m276.152207 235.968286c.273234-.861198.865081-1.584861 1.654003-2.022386 1.261484-.721756 2.351265-1.709852 3.19379-2.895786v-8.322733c-1.950116-2.81099-5.803815-4.727381-10.24551-4.727381-6.408732 0-11.59917 3.981175-11.59917 8.903587 0 2.314932 1.15484 4.422115 3.041503 6.003561.724725.597874 1.518669 1.106072 2.364674 1.51361l.050763.080556c1.137545 1.105137 1.423972 2.824165.706441 4.239804h-37.318701v34.766386c2.172435-2.913284 5.580391-4.639179 9.209115-4.663783 6.59486 0 11.937585 5.766132 11.937585 12.876282s-5.342725 12.880523-11.937585 12.880523c-3.628724-.024604-7.03668-1.7505-9.209115-4.663784v28.063258h42.822173c5.611161 0 10.163834-4.551627 10.177827-10.175528v-69.079115h-4.390933c-.608393-.789852-.780047-1.833265-.45686-2.777071z" fill="#fe6503"/><path d="m357 131c2.204565-1.021283 3.836259-2.74241 4.393327-4.947731.067473-.267537.117628-.539392.150131-.813771.098438-.253937.182857-.513401.252854-.777152.557067-2.213459-.055312-4.504225-1.509219-6.461346l-2.888059 11.392801z" fill="url(#b)"/><path d="m428.723224 126.893967c-.482368-2.831933-9.418879-8.965671-9.418879-8.965671s-3.947805-2.116542-6.038068-4.563264c-1.337091-1.557775-1.75599-1.540842-1.882929-1.329188-.08662-.055273-.185356-.088683-.287729-.097361-.084626-.059263-.165021-.114293-.241184-.17779.025262-.245203-.109486-.478978-.334273-.579932-.101551-.059263-.203103-.135459-.304654-.207421-.677008-1.1387-.918192-2.751504-.998587-4.156888-.101551-1.773662-2.115651-1.329188-2.805354-1.130233-.473905-.888948-.935117-1.81176-1.370941-2.734572.192736-.299594.35302-.618877.478137-.952444 1.244003-2.7049406.973199-5.8077908 1.514806-8.6693553.38928-2.0699778 1.20169-4.2330835 1.0409-6.2480313 0-.0465639 0-.0973609 0-.1481579v.0296316c-.044002-.504787-.159398-1.000771-.342735-1.4731131-.359661-.9058798-.985894-1.6932334-1.269391-2.6287448-.452749-1.367286-.165021-2.8742637-.541607-4.2584821-.469674-1.7524965-1.95063-3.1070833-3.626226-3.8817376-1.675595-.7746542-3.5416-1.0413385-5.377985-1.269925-4.590963-.5756994-9.469654-.9185791-13.658643 1.011707-.384081.227673-.822963.3462213-1.269391.3428797-.413395-.1141602-.805119-.2958021-1.159377-.5376016-1.125526-.558767-2.538781-.203188-3.545831.5418347s-1.692521 1.8202259-2.356836 2.8615645c-.664314 1.0413385-1.392098 2.1165417-2.432998 2.7980682-1.222847.8169851-2.839204 1.0921355-3.808172 2.1927372-.431663.5217781-.704789 1.1564018-.787023 1.8286921 0 0 0-.0211654 0-.0296316-.004199.0803738-.004199.1609121 0 .2412858v.1947218.1566241.5376016c.135404 1.0341058.410112 2.0451152.816642 3.0054893.195385.7166431.578034 1.3682955 1.108601 1.8879553 1.472493 1.1979626 3.808172.0677293 5.585319.7365565.156558.0550301.304654.1269925.452749.1947219 0 .0677293-.046544.1354586-.067701.2074211-.380479 1.2934771-.57286 2.6350116-.571225 3.9833316 0 7.9497313 6.5966 14.3924843 14.733394 14.3924843.304654 0 .605076 0 .905499-.033865.042313.156624.088857.317481.126939.469872.452759 1.756588.595946 3.578693.42313 5.384482l-.088857-.787353c-.197615-.094706-.402854-.172588-.613539-.23282-.589068-.19613-1.207189-.290605-1.827923-.279383-2.001406-.025399-5.014093.778887-8.229883 4.68179 0 0-4.104363 2.281632-5.310284 2.831933-.098876.059823-.177122.14844-.224259.253985s-5.487999 8.292611-6.054994 11.446258c-.566994 3.153647-1.26939 6.772934-1.26939 6.772934s-1.370942 4.089158-2.255284 5.900918-1.692521 3.538858-1.768685 4.326211c-.076163.787354.321579 2.514452-1.370942 3.615054-1.69252 1.100601-2.115651 4.089158-2.115651 4.089158s-.84626.79582-2.043719 1.803294h-.042313l4.421711-16.961966.791254.198955c.386647.095987.793683-.04306 1.0409-.355579.081758-.103685.140859-.223379.173483-.351346l.892805-3.437264.359661-1.367286.071932-.279383.52045-1.993782-1.760222-.423309-2.060644-.512203-5.822272-1.46888.507757-1.947218.42313-1.650903 2.661489-10.218663.42313-1.64667c-1.692521-2.192737-4.38786-3.974865-7.70097-4.800317-6.389266-1.587406-12.57543.994775-13.819433 5.76546-.07369.278238-.128818.561066-.165021.846617-.107157.261674-.196224.530401-.266572.804286-.215558.828437-.272979 1.690118-.169252 2.53985.016925.138281.038082.279383.06347.423308.253638 1.317999.80826 2.559542 1.620588 3.627753.57154.763238 1.235251 1.452822 1.976018 2.053045l.02962.093128c.314065.513518.503876 1.093336.5543 1.693233v.262452c-.142044.25536-.312369.493915-.507756.711158l-39.037995-9.706461-.42313 1.64667-8.792646 33.801172c1.146205-.881473 2.433972-1.561414 3.808172-2.010715.539724-.178764 1.091093-.3202 1.650208-.423308l.198871-.033865c1.573809-.255696 3.183103-.189454 4.730596.194722 4.933698 1.227594 8.344128 5.431046 8.978823 10.375287.082198.624387.117558 1.254054.105783 1.883723-.012113.803273-.097087 1.603789-.253878 2.391692-2.115651 6.425821-8.614932 10.307558-14.928034 8.737084-3.586236-.905087-6.544221-3.433742-7.997162-6.83643l-.42313 1.650903-9.071912 34.690119 34.573971 8.601626.372354-1.663602h.055007c-2.071529-2.56662-2.940746-5.90002-2.386454-9.151926 0-.05503.03385-.105827.055007-.160857.042313-.12276.088857-.241286.135401-.359813.236791-.579166.519792-1.138327.846261-1.672068.169252-.27515.346967-.541834.537375-.800052.118477-.160858.241184-.317482.368123-.469873.608834-.737518 1.303445-1.399736 2.069107-1.972617l.245416-.177789c.279266-.198955.566994-.389444.84626-.567233.173484-.101594.351198-.203188.528913-.296316 2.047777-1.082203 4.33603-1.628295 6.651607-1.587406 1.112667.014834 2.219993.156859 3.300416.423308 3.335819.801687 6.248935 2.827677 8.162182 5.676565.253071.381928.484739.777626.693934 1.185263.623053 1.20937 1.028393 2.519043 1.197458 3.869039.132291 1.07767.103771 2.169026-.084626 3.238309-.822531 2.367369-2.394198 4.401884-4.476718 5.795091l-.42313 1.591639h.046544l-.063469.046564-.42313 1.587407 7.89561 1.96415 11.183331-42.775309c3.016919-.351346 4.561344-1.693233 4.561344-1.887955s3.626226-2.205436 5.636095-2.755737c.998587-.270918 2.153733-.465639 3.071925-.660361-1.083213 5.380249-2.115651 10.582708-2.022562 10.88749.029619.118527.224259-.067729.52045-.474105-.029139.15628-.041902.315176-.038082.474105 0 .080429.114245.021166.262341-.143924l-.021156.101594s-6.279253 12.153182-6.770084 13.545867c-.490831 1.392684.118476 4.956941 2.052182 6.137971.374843.237118.709149.532974.990124.876248l-.22849.45294c-.719321 1.460414-1.358248 3.085918-1.244003 4.097625.151169 1.280461-.148048 2.573623-.84626 3.657384 0 0-5.437224 16.809575-5.314516 21.647989.122708 4.838415-1.933705 15.454988-1.933705 15.454988s-2.234128 6.840663-.905499 8.787882c1.328629 1.947218 2.839204 10.443017 2.839204 10.443017s1.028206 1.947218.964737 3.598121c-.06347 1.650902.968968 4.656392.968968 4.656392l3.385042 12.208213s-.363892 3.246775.905499 5.545339c1.26939 2.298564 1.146683 1.591639.541606 5.604603-.605076 4.012963.727784 7.725377 2.898442 8.889475.846261.457173.888574 1.155632.626233 1.837158-.554301-.215887-1.015512.931279-1.290547 1.858324l-.279266.266684.186177.046564c-.118476.423308-.186177.778887-.186177.778887s-5.674176 4.719889-6.038068 6.430054c-.363892 1.710166-4.349779 2.594881-4.349779 2.594881s-6.038068 1.650902-7.616344 2.476353c-.918738.418011-1.551374 1.287047-1.667133 2.290099-.070841.777406.003776 1.561211.220027 2.311263.600845 2.417091 9.054987 2.654144 13.117037 2.006482 4.062051-.647662 12.435798-3.009723 12.435798-3.009723s8.818034-.846616 11.424516-1.887955c2.606482-1.041338.541607-3.77591.541607-3.77591s0-.088895 0-.253985c.063469-.986309.245415-4.563264-.380818-5.503009-.469674-.72809-.45698-2.53985-.389279-3.691249 1.764453-3.174812-2.022563-12.69925-2.022563-12.69925s.723553-9.312784.241184-10.675837c-.482368-1.363053-2.538781-12.919371-2.538781-12.919371s-1.269391-5.249023-.782791-6.133738c.4866-.884714-.304654-3.424565-.304654-3.424565s-2.069107-2.823466-1.882929-3.712414c.186177-.888947-.605076-2.476354-.605076-2.476354s6.160776-9.202723 5.614938-10.912889.245415-4.482835.245415-4.482835.774328-1.30379 1.692521-2.865798c1.142452-1.913354 2.538781-4.203452 2.995762-4.918843.592382-.910113 2.018331-4.783384 2.813816-7.014219.338504-.948211.566995-1.600106.566995-1.600106s.964736 17.355642 1.810997 19.112372c.84626 1.75673 2.115651 15.751304 2.115651 15.751304.469447 1.242126.675504 2.56836.605076 3.894437-.118476 2.180038 1.933705 11.679077 1.933705 11.679077s.905499 6.722137.300423 8.491566-.118477 14.815792-.118477 14.815792-3.321572 2.53985-4.167832 4.482836c-.846261 1.942985.118476 7.255505.118476 7.255505l.38928.182022c-.311325.737876-.542552 1.507062-.689702 2.294332-.118477 1.121767-1.933705 6.197234-1.751759 6.904159s-.782791 2.891196-.905499 4.00873-1.629051 2.77267-1.751759 3.365301c-.190935.530377-.412753 1.049112-.664315 1.553542-.328489.774945-.590367 1.576487-.782791 2.395925-.605076 2.480587 6.579675 2.891196 6.579675 2.891196 10.629032 1.947219 12.562737-6.015211 12.562737-6.015211s1.328629-7.077716 1.810997-7.619551c.119324-.203362.148461-.447296.080395-.67306-.275934-1.204113-.797396-2.338266-1.531732-3.331437-.338504-.393677-.35966-1.405384-.304653-2.311263.307569-.03.611955-.086654.90973-.169324 4.286309-1.23606 2.538781-8.377272 2.538781-8.377272s2.898442-4.715655 2.898442-6.544347 1.028207-7.433295 1.028207-7.433295c3.685464-6.607843 2.234127-22.65123 2.839203-23.950786.605077-1.299557-1.26939-6.133738-2.779965-8.31801-1.510575-2.184271-.905499-8.080956 0-9.791122.905498-1.710165-.905499-7.61955-.905499-7.61955s1.751759-11.429326 1.692521-13.215687 1.510575-7.018452 1.510575-7.018452 1.569813-2.713407 1.205921-3.538858 1.205921-2.963159.787022-3.894437.359661-3.835174 1.146683-5.545339c.401974-.876249.901268-3.289106 1.269391-5.43528.042313-.237052.084626-.474105.122708-.706925 1.760221 1.113301 3.385041 1.942986 3.960499 1.718632 1.078982-.423308-.638927-5.926317-1.815229-9.355114.203102-.152391.287728-.266685.203102-.317482-.723552-.474105.080395-2.599113.080395-2.599113 4.269384-2.514451 2.818047-4.402407 1.451337-5.503008-1.366711-1.100602-.482369-4.233084-.888574-5.503009s.4866-6.997287 1.210153-11.166874c.150041-.905971.142884-1.831034-.021157-2.734572.774329-1.181031 1.574045-2.417091 2.276441-3.560024 2.411842-3.932534 7.565568-22.651229 7.565568-22.651229l-.03385-.097361c.503525-.994775.880111-1.803294 1.083213-2.340896 1.561351-4.06376-1.337091-16.339702-1.81946-19.180101zm-37.523188-10.777431.110014-.050797v.088895zm-23.428721 200.796317c-.262991.001835-.523592-.050019-.765865-.152391z" fill="url(#c)"/><path d="m322.680133 180.45724c3.495329 1.391159 11.619951 1.54276 15.22995 1.54276h1.77527l2.314647-4.949317-2.314647-4.124431s-2.123529-.615321-4.943575-1.150382c-4.162117-.784757-9.857422-1.400077-12.571292.365625-4.552846 2.956214-4.043199 6.500995.509647 8.315745z" fill="#fec2be"/><path d="m337.053279 182h1.713114l2.233607-4.84082-2.229508-4.034016s-2.049181-.601832-4.770492-1.125164c2.209016 1.726995 7.520492 5.486263 3.053279 10z" fill="#000" opacity=".1"/><path d="m375.284642 124.183794-1.003022-1.183794s-5.178098 8.346176-5.721401 11.497284c-.543303 3.151107-1.253777 6.770623-1.253777 6.770623s-1.312286 4.096439-2.164854 5.906197c-.852568 1.809757-1.621552 3.542867-1.696778 4.330643-.075227.787777.309265 2.520886-1.316466 3.623774-1.62573 1.102888-2.006043 4.09644-2.006043 4.09644s-5.876033 5.82529-8.968682 5.961554c-3.09265.136264-11.977748 1.733109-11.668483 3.308663s-3.707 2.516628-5.33273 2.912645c-1.625731.396018 10.448139 5.109904 3.401914 11.182173 0 0 4.480162.945332 4.94406 2.043962.463897 1.098629 5.178098-.625963 5.178098-.625963s1.0072-2.444238 4.484341-2.601793c3.477141-.157556 5.253325-1.733109 5.253325-1.967313s3.477141-2.205775 5.433032-2.75509c1.955892-.549315 4.480163-.787777 4.559568-1.34135.079406-.553573 11.593256-51.179946 11.593256-51.179946z" fill="#4c4981"/><path d="m375.284642 124.183794-1.003022-1.183794s-5.178098 8.346176-5.721401 11.497284c-.543303 3.151107-1.253777 6.770623-1.253777 6.770623s-1.312286 4.096439-2.164854 5.906197c-.852568 1.809757-1.621552 3.542867-1.696778 4.330643-.075227.787777.309265 2.520886-1.316466 3.623774-1.62573 1.102888-2.006043 4.09644-2.006043 4.09644s-5.876033 5.82529-8.968682 5.961554c-3.09265.136264-11.977748 1.733109-11.668483 3.308663s-3.707 2.516628-5.33273 2.912645c-1.625731.396018 10.448139 5.109904 3.401914 11.182173 0 0 4.480162.945332 4.94406 2.043962.463897 1.098629 5.178098-.625963 5.178098-.625963s1.0072-2.444238 4.484341-2.601793c3.477141-.157556 5.253325-1.733109 5.253325-1.967313s3.477141-2.205775 5.433032-2.75509c1.955892-.549315 4.480163-.787777 4.559568-1.34135.079406-.553573 11.593256-51.179946 11.593256-51.179946z" fill="#000" opacity=".05"/><path d="m388.258265 341.692719c10.078222 1.951219 11.911377-6.028329 11.911377-6.028329s1.259262-7.089145 1.717551-7.621683c.115257-.20352.143657-.447215.078445-.673128-.26454-1.201945-.758602-2.337425-1.453311-3.340078-.627567-.766855-.115605-3.957822-.115605-3.957822l-11.680168-3.071679s-1.032182 2.419852-1.143658 3.544573c-.111475 1.12472-1.833155 6.203001-1.651491 6.914472s-.74317 2.892746-.858775 4.017466c-.115604 1.124721-1.544144 2.777718-1.651491 3.36564-.17978.532473-.390733 1.053189-.631695 1.559271-.309935.777554-.558468 1.579682-.743171 2.398551-.590408 2.479497 6.221992 2.892746 6.221992 2.892746z" fill="#ca8496"/><path d="m388.27077 341.70596c10.069051 1.867141 11.900538-5.76857 11.900538-5.76857s1.258116-6.783676 1.715987-7.293267c.115153-.19475.143527-.427944.078375-.644123l-2.425483 6.86521s-2.00061 4.125649-9.437931 3.505986c-4.232219-.354675-6.315328-1.129253-7.325946-1.732609-.309653.744049-.55796 1.511614-.742495 2.295198-.569245 2.376732 6.236955 2.772175 6.236955 2.772175z" fill="#000" opacity=".1"/><path d="m396 329.999837s-2.806748.057727-3-1.999837z" fill="#000" opacity=".1"/><path d="m315.256757 215 1.743243.402439-.382883 1.597561-1.617117-.369919z" fill="#fe6503"/><path d="m315.256757 215 1.743243.402439-.382883 1.597561-1.617117-.369919z" fill="#000" opacity=".1"/><path d="m363.849738 137.924536 2.048506-.000207-.000179 1.764276-2.048505.000207z" fill="#3a3768" transform="matrix(.24666075 -.96910189 .96910189 .24666075 140.356123 458.168426)"/><path d="m358.15465 134.428566 2.048505-.000207-.000591 5.851304-2.048506.000207z" fill="#3a3768" transform="matrix(.24666075 -.96910189 .96910189 .24666075 137.473211 451.554914)"/><path d="m361.988962 137.301605 2.048505-.000207-.000209 2.068899-2.048505.000207z" fill="#3a3768" transform="matrix(.24666075 -.96910189 .96910189 .24666075 139.410393 456.010593)"/><path d="m357.17754 134.971842c-.129649.057077-.255246.11796-.380844.167427l.316019.076104-.486183 1.784627-2.402556-.574581c-.370107-.821974-.277322-1.763408.247144-2.507611.457563-.693257 1.183853-1.192574 2.025763-1.392694.514519-.138911 1.017014-.314457 1.503117-.525114z" fill="#fe6503"/><path d="m362 143.799538.820242.173884c.267454.056016.551225.022708.788516-.092552.23729-.115261.408534-.302971.475834-.52159l.915408-2.989315-1.812689-.369965z" fill="#3a3768"/><path d="m361.817363 126.795699c-.487323 2.322581-1.903385 4.133333-3.817363 5.204301l2.507241-12c1.271277 2.060215 1.804507 4.473118 1.310122 6.795699z" fill="#3a3768"/><path d="m361.931557 143.045188c-.518049-.13292-.830858-.659144-.699576-1.176864l.87341-3.42476-5.681406-1.443564-17.328285 67.961802c2.607304 5.067337 1.023476 11.280326-3.692914 14.486438l-.402786 1.583264 7.686856 1.968496 20.313144-79.666946z" fill="#3a3768"/><path d="m360.030867 142.514335c-.135398.531262.187219 1.071249.721512 1.207646l1.101947.278019 1.145674-4.47437-2.068336-.52563z" fill="#3a3768"/><path d="m354.327286 134.161015c.479266-.767783 1.234766-1.321725 2.110283-1.547286.534229-.155502 1.056199-.350505 1.561609-.583403l3.000822-11.794885c-1.878268-2.390061-4.510413-4.071225-7.466181-4.768685-6.191569-1.581106-12.193214.985021-13.396075 5.72834-.569776 2.236378.029544 4.557307 1.468757 6.552714.551248.756636 1.193382 1.44243 1.911916 2.04191l.029544.093007c.834973 1.352989.687563 3.093933-.362969 4.286743l-37.841591-9.651513-8.538205 33.600625c2.806985-2.277096 6.513923-3.111952 10.023844-2.257516 6.377274 1.62761 10.129357 8.518528 8.382043 15.388309s-8.314514 11.126931-14.691789 9.520459c-3.503267-.924687-6.372381-3.438734-7.753179-6.793685l-8.766115 34.479958 33.519733 8.543893c-2.203055-2.801297-2.99405-6.463371-2.144048-9.926305 1.624918-6.383611 8.500219-10.146137 15.362859-8.395928 3.706394.908991 6.838596 3.380361 8.588851 6.776774l17.249452-67.869205-2.477472-.638361c-.394279-.908339-.308735-1.95403.227911-2.78596z" fill="#fe6503"/><path d="m356.126923 136.135442.071923-.270884c-.131154.063489-.262308.131209-.397692.190465z" fill="#fe6503"/><g fill="#000" opacity=".1" transform="translate(283 115)"><path d="m80.9060406 22.8646512-1.9928426-.5112016-5.6414721-1.4406589.0716244-.2703876.8426395-3.2995736c-.5055007.2338878-1.0280468.4287936-1.5630964.5830232-.8755057.2221888-1.6307767.7765704-2.106599 1.5462791-.1237718.2126315-.228122.4360471-.3117766.6675194.0821317-.2313947.1850767-.4548211.3075634-.6675194.47843-.7672831 1.232611-1.3208647 2.106599-1.5462791.5332964-.1554007 1.0543554-.350277 1.5588833-.5830232l2.9955837-11.78720934c-1.8749891-2.38850592-4.5025394-4.06857536-7.4531472-4.7655814-6.1807614-1.58007752-12.1719289.98437984-13.3726904 5.7246124-.5687817 2.23492248.0294924 4.55434104 1.4661929 6.54844964.5502863.7561436 1.1912989 1.4414905 1.9085787 2.0405814l.0294924.0929457c.8335153 1.3521086.6863627 3.0919202-.362335 4.2839535l-37.775533-9.64523256-8.5232995 33.57875966c2.8040993-2.2782589 6.5083358-3.1127192 10.0147716-2.2560465 6.3661421 1.6265504 10.1116751 8.5129845 8.3674111 15.3782946-1.7442639 6.8653101-8.3 11.1196899-14.6661421 9.5142636-3.497151-.9240849-6.3612573-3.4364964-7.73964467-6.7892636l-8.75081218 34.4575194 33.46121825 8.538333c-2.1992084-2.7994738-2.988823-6.4591649-2.1403045-9.9198447 1.6220812-6.3794573 8.4853807-10.1395348 15.3360406-8.3904651 3.6999241.9084003 6.8266577 3.3781612 8.5738578 6.7723644 2.5909117 5.0571403 1.0170413 11.2576264-3.6696954 14.4572864l-.4002538 1.580078 7.6385279 1.964535 20.1854315-79.5066281.7625888.1985659c.2486553.0639677.512481.025932.7330929-.1056898.220612-.1316218.3798191-.3459766.4423893-.5956281l.851066-3.4305426.5013706-1.9814341zm-7.769137-2.1124031c-.063198.0295736-.126396.0633721-.189594.0887209zm-2.8649747 1.5167054 2.4984264.6379457z"/><path d="m78.7193909 12.230814c.5772081-2.2813954-.0589848-4.64728687-1.5630965-6.67519384l-2.9913705 11.78720934c2.2961929-1.0519768 3.9856852-2.834845 4.554467-5.1120155z"/></g><path d="m364.265036 136.287905 2.048505-.000206-.000178 1.764276-2.048506.000207z" fill="#3a3768" transform="matrix(.24666075 -.96910189 .96910189 .24666075 142.255044 457.337954)"/><path d="m358.569947 132.791936 2.048506-.000207-.000592 5.851304-2.048505.000207z" fill="#3a3768" transform="matrix(.24666075 -.96910189 .96910189 .24666075 139.372132 450.72444)"/><path d="m362.405303 135.65664 2.048505-.000207-.000209 2.0689-2.048505.000207z" fill="#3a3768" transform="matrix(.24666075 -.96910189 .96910189 .24666075 141.318178 455.174854)"/><path d="m357.184966 132.960426-.381161.171233.312228.072298-.482533 1.796043-2.404554-.574581c-.37611-.820681-.284571-1.764166.243294-2.507611.45952-.691886 1.185754-1.190751 2.027448-1.392694.513631-.138911 1.015196-.31446 1.500312-.525114z" fill="#fe6503"/><path d="m363 141.800632.814925.170068c.266132.059361.550002.027741.787569-.087727s.408818-.305057.475118-.525994l.922388-2.987268-1.791045-.369711z" fill="#3a3768"/><path d="m361.819202 124.8c-.484025 2.31828-1.900768 4.129032-3.819202 5.2l2.511982-12c1.264824 2.060215 1.798311 4.473118 1.30722 6.8z" fill="#3a3768"/><path d="m361.927317 142.038505c-.249758-.063814-.463852-.224213-.595083-.445837s-.168825-.486275-.104493-.73561l.847971-3.421537-5.655966-1.435521-17.324046 67.973411c2.612815 5.06688 1.027829 11.284431-3.692914 14.486484l-.402786 1.583731 7.691096 1.956374 20.308904-79.690482z" fill="#3a3768"/><path d="m361.031627 140.509991c-.066234.255781-.027529.527274.107584.754627s.355538.391899.612683.457363l1.095679.278019 1.152427-4.478714-2.069131-.521286z" fill="#3a3768"/><path d="m354.331141 132.162846c.47832-.768828 1.234267-1.323168 2.110398-1.547568.534645-.154359 1.056731-.34943 1.561695-.583509l2.996766-11.797032c-1.877068-2.389949-4.507843-4.071401-7.462369-4.769553-6.19613-1.577166-12.193883.9852-13.401031 5.733611-.565586 2.232557.029546 4.553908 1.473058 6.549679.551206.758095 1.193364 1.445421 1.912022 2.04651l.029545.088795c.832202 1.353908.684937 3.093358-.362988 4.287523l-37.847887-9.649042-8.551335 33.602515c2.812327-2.283866 6.52944-3.117797 10.045497-2.253698 6.373403 1.623677 10.129913 8.51585 8.382503 15.39111s-8.319191 11.124728-14.713699 9.501051c-3.498614-.931024-6.362093-3.446121-7.740941-6.79915l-8.762375 34.486235 33.517349 8.549677c-2.201701-2.802525-2.991168-6.465197-2.139944-9.928112 1.620786-6.389002 8.500685-10.147985 15.363701-8.397457 3.713918.909258 6.850053 3.390546 8.593543 6.79915l17.246177-67.873105-2.502933-.638478c-.39139-.916258-.296207-1.96832.253248-2.799152z" fill="#fe6503"/><path d="m357.129038 134.137558.067693-.275116c-.131154.063488-.262308.131209-.393462.190465z" fill="#fe6503"/><path d="m351.417243 260.390409c1.271316 1.931342 2.762994 10.375148 2.762994 10.375148s1.000102 1.931341.940774 3.575305c-.059329 1.643965.940773 4.648742.940773 4.648742l3.292709 12.133218s-.355968 3.224536.881446 5.493968c1.237414 2.269431 1.114521 1.580572.529715 5.565812-.584805 3.98524.703462 7.678877 2.818084 8.874871 2.114623 1.195995-.940774 3.926075-.940774 3.926075s13.518328 3.634471 16.34065 1.407301-1.470489-13.248916-1.470489-13.248916.7077-9.259449.237313-10.607584-2.470591-12.834755-2.470591-12.834755-1.233177-5.21927-.76279-6.098304c.470387-.879035-.292403-3.380904-.292403-3.380904s-2.000204-2.814602-1.82222-3.693637c.177985-.879035-.589043-2.459607-.589043-2.459607s5.983661-9.170701 5.453946-10.890735c-.529715-1.720035.233075-4.454341.233075-4.454341l1.669662-2.848411c1.11452-1.901758 2.462115-4.179642 2.915552-4.889631.57633-.904392 1.966302-4.75017 2.741805-6.968887l.550903-1.589025s.940774 17.234155 1.762892 18.992225 2.055294 15.636678 2.055294 15.636678c.457052 1.235852.657456 2.551451.589044 3.866909-.118657 2.168004 1.881547 11.604951 1.881547 11.604951s.881446 6.68151.292403 8.452258-.118656 14.715382-.118656 14.715382-3.233381 2.535678-4.055498 4.454341c-.822118 1.918662.118656 7.184419.118656 7.184419s9.403501 4.691004 13.560705 3.4612c4.157204-1.229803 2.466353-8.325474 2.466353-8.325474s2.822322-4.686778 2.822322-6.504013c0-1.817236 1.025528-7.366144 1.025528-7.366144 3.585112-6.563178 2.173951-22.504138 2.762994-23.793108.589043-1.288969-1.237414-6.098304-2.703665-8.266308-1.466252-2.168005-.881446-8.029646 0-9.720098.881445-1.690452-.906873-7.568997-.906873-7.568997s1.695088-11.372514 1.644236-13.130584c-.050853-1.75807 1.470489-6.973113 1.470489-6.973113s1.525579-2.696271 1.173848-3.520366c-.35173-.824095 1.173849-2.928708.76279-3.866908-.411059-.938201.355969-3.803517 1.118758-5.493968.389871-.870583.877208-3.271025 1.271316-5.396768.360207-2.024315.627183-3.803516.627183-3.803516l-9.700142-7.797208-24.214334-6.339194-9.106862-2.928708-8.878024 13.946227c-.627579 1.017035-1.20323 2.065042-1.724752 3.140014-.699224 1.449562-1.322169 3.063943-1.211988 4.069762.147925 1.269451-.142028 2.551295-.822118 3.634471 0 0-5.292913 16.701663-5.174257 21.510998.118657 4.809336-1.881547 15.353528-1.881547 15.353528s-2.173951 6.795616-.868733 8.735409z" fill="#ceddf9"/><path d="m385.847914 125c.379502-.151661 26.396969-10.649985 22.81326-12.735326-2.126075-1.238566-4.743778-6.487728-6.537789-10.595218-1.250632-2.8689239-2.1002-5.1817568-2.1002-5.1817568s-20.881248-3.6230169-13.407642 8.8806048c1.17804 1.918037 2.065566 3.992604 2.634953 6.159128 2.130388 8.518303-3.230081 13.316694-3.402582 13.472568z" fill="#fec2be"/><path d="m387.603902 105.653422c1.169551 1.976412 2.050682 4.114117 2.615967 6.346578 5.360412-.378225 10.073132-3.735901 12.240668-8.721119.205684-.468562.385777-.948247.539463-1.436879-1.241621-2.9562374-2.085067-5.33946-2.085067-5.33946s-20.730785-3.7332812-13.311031 9.15088z" fill="#000" opacity=".1"/><path d="m375 97.0059462c.002646 7.3504138 5.6901 13.4468708 13.022972 13.9594928 7.332871.512621 13.813312-4.73321 14.838727-12.011755 1.025416-7.2785448-3.753488-14.1104615-10.942598-15.643527-7.189109-1.5330655-14.339547 2.7549391-16.372867 9.8185498-.362776 1.2604536-.54665 2.5656235-.546234 3.8772394z" fill="#fec2be"/><path d="m362 206.940437c1.482693 1.349869 2.052315 3.91965 2.052315 3.91965s6.973685 4.766463 6.508772 1.74393c-.464912-3.022532 3.602023-15.234235 3.602023-15.234235l-.464912 16.630218s22.303224-1.048035 23.932512-2.674585c1.629287-1.62655 11.153706-4.745502 11.153706-4.745502s2.931879 2.343406 5.595701 4.120873c.356014-2.008035.619883-3.772926.619883-3.772926l-9.587245-7.734498-23.932512-6.288209-9.000869-2.905153-8.774696 13.834061c-.620026 1.006125-1.188975 2.042899-1.704678 3.106376z" fill="#000" opacity=".1"/><path d="m360.163 205.510696c1.87493 1.168754 2.575918 4.329029 2.575918 4.329029s7.026766 4.797374 6.558033 1.755239c-.468732-3.042134 3.631622-15.333031 3.631622-15.333031l-.468732 16.738067s22.490719-1.046393 24.124949-2.69193 11.245359-4.797374 11.245359-4.797374 8.318948 6.670755 9.839162 6.084268c1.520214-.586486-2.694157-11.936473-2.694157-11.936473l-4.328386-66.475483s1.16972-19.7802-.586972-20.484828c-.271043-.10955-.521065-.265149-.738993-.459906-1.157051-1.037955-1.503322-3.147618-1.60467-4.919735-.114016-2.109663-2.926411-1.054831-2.926411-1.054831l1.638452 2.109663-14.513819 8.818391-.126685.075948c-.565107-.297451-1.147484-.560924-1.744023-.789014-1.266845-.493661-2.993976-.957787-4.113023-.49788-.625575.317762-1.155883.795227-1.537105 1.383939-.827865 1.243019-1.492086 2.587381-1.976278 3.999921l-5.257406 8.89012s-2.694157 11.814113-2.694157 12.290897-.819226 11.236065-1.756691 12.404819c-.937465 1.168753-1.874931 7.020958-1.524437 8.776198s-.586971 8.312072-.586971 8.312072c-3.863877 3.160276-5.852824 13.923776-5.852824 13.923776s-6.106192 12.067273-6.587593 13.459651c-.481401 1.392377.130907 4.936611 2.005838 6.088487z" fill="#fff"/><path d="m391 118.018164c1.471616 2.075765 5.724891 4.981836 5.724891 4.981836l12.275109-9.859884c-1.196507-1.021276-1.554585-3.097041-1.659389-4.844836-.117904-2.075765-3.026201-1.03373-3.026201-1.03373l.353712.415153c.341157.418516.478513.955432.377638 1.476156s-.430418.97589-.906022 1.251399z" fill="#000" opacity=".1"/><path d="m391 117.017517c1.471616 2.076034 5.724891 4.982483 5.724891 4.982483l12.275109-9.861165c-1.196507-1.021409-1.554585-3.097444-1.659389-4.841313-.117904-2.076035-3.026201-1.038018-3.026201-1.038018l.353712.415207c.341006.417884.478298.954255.377394 1.474401-.100903.520146-.430415.974648-.905778 1.249357z" fill="#fff"/><path d="m386 118.821833c1.587464 1.848552 3.83965 3.948405 3.734694 2.896349s1.342565-3.373394 2.265306-4.412672c-1.44125-.444873-2.994492-.40285-4.408163.119261-.648808.319417-1.19833.8017-1.591837 1.397062z" fill="#000" opacity=".1"/><path d="m386 118.330938c1.357517 1.554711 3.279731 3.313143 3.189978 2.433927-.089754-.879216 1.020942-2.31241 1.810022-3.184478-1.121915-.418163-2.647719-.811309-3.642483-.418163-.553405.266984-1.022084.67048-1.357517 1.168714z" fill="#fff"/><circle cx="390" cy="128" fill="#ff718d" r="1"/><circle cx="383" cy="152" fill="#ff718d" r="1"/><circle cx="375" cy="178" fill="#ff718d" r="1"/><circle cx="375" cy="206" fill="#ff718d" r="1"/><circle cx="386" cy="139" fill="#ff718d" r="1"/><circle cx="380" cy="166" fill="#ff718d" r="1"/><circle cx="374" cy="191" fill="#ff718d" r="1"/><circle cx="375" cy="209" fill="#ff718d" r="1"/><path d="m409.909216 113.404994s-.156264-1.403923 1.870942 1.016052 5.85778 4.519536 5.85778 4.519536 8.670529 6.083666 9.139321 8.887296c.468791 2.80363 3.277316 14.970962 1.794921 19.022524-1.482394 4.051561-12.817854 23.470387-12.817854 23.470387s2.956342 3.511916 2.267937 7.643581-1.562638 9.823245-1.17409 11.071176c.388548 1.247932-.468792 4.363545.844669 5.455485 1.31346 1.09194 2.732505 2.951189-1.406374 5.455484 0 0-.781319 2.107992-.080244 2.575967.701076.467974-10.385207 5.299493-14.78171 2.727742-4.396502-2.571751-12.247702-23.154189-12.416636-27.753828-.168934-4.59964 2.419977-19.815129 3.826351-23.390284 1.406375-3.575156 5.625497-17.542713 7.420419-20.658326s9.654568-20.042792 9.654568-20.042792z" fill="#000" opacity=".1"/><path d="m409.900959 113.404994s-.156296-1.403923 1.875562 1.016052 5.859018 4.519536 5.859018 4.519536 8.67236 6.083666 9.14125 8.887296 3.278008 14.970962 1.795301 19.022524c-1.482707 4.051561-12.812113 23.470387-12.812113 23.470387s2.956967 3.511916 2.268416 7.643581-1.562968 9.823245-1.174338 11.071176c.38863 1.247932-.468891 4.363545.844847 5.455485s2.733082 2.951189-1.406671 5.455484c0 0-.781484 2.107992-.08026 2.575967.701223.467974-10.387401 5.299493-14.784832 2.727742-4.397432-2.571751-12.25029-23.154189-12.419259-27.753828-.16897-4.59964 2.420488-19.815129 3.827159-23.390284 1.406671-3.575156 5.626685-17.542713 7.421986-20.658326s9.643934-20.042792 9.643934-20.042792z" fill="#4c4981"/><path d="m413 127s-6.209342 7.215606-5.994553 12c0 0-.070295-7.749487 5.994553-12z" fill="#000" opacity=".1"/><path d="m404 139c0 .227516-4.68559 16.749349-4.441048 18.81768.244541 2.068332-1.375546 8.18232-1.375546 8.18232l-2.183406-.53363s1.694323-8.492569 2.017467-11.628159c.323144-3.135591 5.982533-14.838211 5.982533-14.838211z" fill="#000" opacity=".1"/><path d="m402 187c.151352.230861 10.365589 12.105502 7.489895 12.961786s-7.489895-12.961786-7.489895-12.961786z" fill="#000" opacity=".1"/><path d="m411 183c.196792.163311 3.578042 8.977664 3.968049 6.620696.390006-2.356968-2.908949 6.448559-3.438499-.079448z" fill="#000" opacity=".1"/><path d="m390.83485 115.517569s-4.365879-2.688203-9.849695 4.188296c0 0-3.993234 2.290741-5.166221 2.846332-1.172986.55559-2.506887 15.253091-2.506887 15.253091s-2.58311 6.320908-1.880165 9.957888c.702944 3.63698-2.032612 16.120667-2.032612 16.120667s-4.547967 22.437301-4.395521 23.078367c.152445.641066 4.619956-7.034628 4.543733-10.829738-.076223-3.795109 3.756096-15.646278 4.306595-16.359998s4.306595-21.018409 4.306595-21.018409 3.053152-8.615924 5.00954-11.462255c1.956388-2.846332 4.387053-8.218463 5.403358-9.167241.731598-.638973 1.54836-1.171254 2.42643-1.581295z" fill="#000" opacity=".1"/><path d="m390.870482 115.517575s-4.990778-2.688237-10.57734 4.188351c0 0-4.075514 2.290771-5.271401 2.846369-1.195887.555597-2.555831 15.253289-2.555831 15.253289s-2.633542 6.32099-1.916873 9.958017-2.072295 16.120876-2.072295 16.120876-4.632443 22.44614-4.472704 23.078666c.15974.632526 4.710154-7.034719 4.632443-10.829878-.077711-3.795158 3.829429-15.646481 4.390676-16.36021.561246-.713729 4.403627-21.018682 4.403627-21.018682s3.11276-8.616035 5.107344-11.462404 4.472704-8.21857 5.508851-9.167359c1.036148-.94879 2.953021-1.581316 2.953021-1.581316z" fill="#4c4981"/><path d="m368 163.997542s-9.104951-6.215011-13.508436-3.146295c-4.403486 3.068715-11.58812 7.413188-4.515228 10.559483 7.072891 3.146295 16.873129 2.542896 16.873129 2.542896z" fill="#fec2be"/><g fill="#000"><path d="m375.542969 223.855372c1.465237 2.892562 2.680311 17.512397 3.493339 22.144628 1.17487-1.859504 2.595434-4.086777 3.073423-4.780992.607537-.884297 2.072774-4.644628 2.890269-6.814049-.933642-2.099174-3.511208-8.115703-3.511208-10.330579 0-2.694215-4.708413-6.07438-4.708413-6.07438s-2.970678 2.417355-1.23741 5.855372z" opacity=".1"/><path d="m406 269.440076s-10.510952-4.485128-13.61558-1.293787 13.61558 1.293787 13.61558 1.293787z" opacity=".1"/><path d="m400 271s10.976007 5.923303 7.215091 6.914079-7.215091-6.914079-7.215091-6.914079z" opacity=".1"/><path d="m368 266s5.671086.419647 3.50811 1.684671-3.50811-1.684671-3.50811-1.684671z" opacity=".1"/><path d="m363 268c.060483.264296 13.241403 4.03722 10.666566 5.74557-2.574838 1.708349-10.666566-5.74557-10.666566-5.74557z" opacity=".1"/><path d="m404 303.424617c-2.039692-.339501-13.429834-6.057675-8.975539-1.940008s8.975539 1.940008 8.975539 1.940008z" opacity=".1"/><path d="m399 307s-.864599 4.532938-4.159421 3.947873 4.159421-3.947873 4.159421-3.947873z" opacity=".1"/><path d="m401 315.347738c-.684496-.163749-8.813443-3.486648-8.99687-1.937026-.183427 1.549621 7.753146 4.265451 8.375008 3.434727.356524-.439209.571582-.957156.621862-1.497701z" opacity=".1"/><path d="m377 311c-.980132-.084472-10.154525-4.102906-12-.50683z" opacity=".1"/><path d="m369 312.998815s-1.817692-1.586192-3.630349-.760776c-1.812657.825417 3.630349.760776 3.630349.760776z" opacity=".1"/><path d="m388 327c-.202046.992688-.985835 1.776478-2 2z" opacity=".1"/></g><path d="m343.25129 332.726611c.581144 2.375153 8.700429 2.604737 12.584474 1.97025 3.884046-.634487 11.944799-2.955375 11.944799-2.955375s8.466299-.809806 10.958108-1.849196c2.49181-1.03939.522611-3.706741.522611-3.706741s0-.091834 0-.250455c.058533-.968428.23413-4.478979-.363737-5.426536-.694028-1.102004-.288481-4.691866-.288481-4.691866s-12.003331 2.316713-12.237461 1.218884c-.23413-1.09783-2.090444-2.663177-2.955888-3.00964-.865444-.346464-1.509301 2.89276-1.509301 2.89276s-5.435155 4.633427-5.798892 6.311478c-.363737 1.678052-4.180888 2.546298-4.180888 2.546298s-5.798892 1.619612-7.308193 2.429418c-.890889.418242-1.497008 1.272117-1.5971 2.249925-.06334.764605.014604 1.534322.229949 2.270796z" fill="#ca8496"/><path d="m343.238224 332.742889c.58135 2.358146 8.703522 2.586087 12.588948 1.956142 3.885427-.629944 11.949046-2.934213 11.949046-2.934213s8.469309-.804008 10.962005-1.835956c2.492695-1.031948.522796-3.6802.522796-3.6802s0-.091176 0-.248662l-12.128887 2.66483s-5.976614 2.528065-9.803487 2.528065c-3.3459 0-10.832351 1.355209-14.303722-.700399-.068276.756745.00402 1.519481.213301 2.250393z" fill="#000" opacity=".1"/><path d="m360 323s.600865 3.75 3 5z" fill="#000" opacity=".1"/><path d="m376 93.3028062c.222771.1174649.455726.2146212.696025.2902847 1.096767.2944918 2.168223-.4459447 3.142658-1.0349282.974435-.5889836 2.320084-1.0265143 3.16375-.2608356 1.100985.997065.30372 3.1258199 1.438452 4.0892288.717117.6100187 1.856067.3996674 2.653332.9003034.797265.5006361 1.03771 1.5986697 1.24019 2.5452505.20248.9465812.607439 2.0277862 1.535473 2.3054502.928033.277663 1.792791-.332355 2.70817-.298699.189825 0 .421833.029449.539946-.105176.083658-.123242.115467-.274309.088585-.420702-.114345-1.130669-.012717-2.2727079.299502-3.3656207.375432-1.0769985 1.2655-2.0488214 2.37914-2.2213094 1.640932-.2524216 3.020327 1.1821741 3.986325 2.5242153 1.01549 1.4211482 1.939748 2.9049888 2.767227 4.4426188.05243.099545.098913.202095.139205.307113 2.159935-4.8659751 1.418472-10.5271023-1.922245-14.6764901-3.340716-4.1493879-8.722898-6.0942265-13.953323-5.0420002-5.230426 1.0522264-9.435787 4.9258307-10.902412 10.0423316z" fill="#000" opacity=".1"/><path d="m399.506381 97.2416868c-.964576-1.361032-2.341941-2.7981466-3.984669-2.5360845-1.124637.1732991-1.992335 1.1496916-2.371426 2.2275276-.312273 1.0979666-.412355 2.2457426-.294849 3.3814461.023405.147581-.0097.298583-.092666.422681-.130576.139484-.349607.11835-.539152.109897-.914031-.033815-1.82385.562165-2.704184.300103s-1.331031-1.3652588-1.533213-2.3162905c-.202182-.9510318-.421212-2.0373213-1.238364-2.5572186-.817152-.5198974-1.933365-.2916497-2.649426-.9087637-1.133062-.9637121-.332758-3.1067035-1.436335-4.1084569-.842424-.7650522-2.186092-.3254642-3.159093.2662889-.973.591753-2.04288 1.3314443-3.142244 1.0355678-.370667-.1014434-.703425-.3127837-1.065668-.4522684-1.731182-.6636088-3.976245.460722-5.399942-.7312377-.516572-.5186825-.8884-1.1643614-1.078304-1.8724758-.390747-.9575719-.655531-1.9621407-.787667-2.9883529-.125829-1.0373289.158455-2.0828329.791879-2.9122704.926667-1.0947432 2.493577-1.3694857 3.677184-2.1768059 1.006698-.6931965 1.68485-1.7456715 2.350365-2.7812394.665516-1.0355678 1.309971-2.1134038 2.282972-2.8446415.973-.7312377 2.337728-1.0947431 3.424456-.5410314.342826.2399256.722832.4213075 1.124637.5368046.438064.0056281.8688-.1130539 1.242577-.3423714 4.052063-1.9147438 8.769642-1.5765992 13.213433-1.0059802 1.777516.2282476 3.580305.4945365 5.201973 1.2680423 1.621668.7735057 3.05379 2.1134037 3.508699 3.8548485.362243 1.3779392.084243 2.8784559.522304 4.2268075.294848.9214441.901394 1.6907231 1.263637 2.6163939.947728 2.4726824-.185334 5.1862929-.665516 7.7900064-.522303 2.8446415-.261151 5.9175308-1.465819 8.6142338-.235879.528351-.501243 1.454022-1.095152 1.107424-.421212-.257836-.867698-1.758352-1.120425-2.227528-.830923-1.543061-1.759491-3.0311257-2.780002-4.4550552z" fill="#9a5e7f"/><path d="m424.87967 142.537761 2.12033 6.036012s-5.02094 18.6506-7.374506 22.571465-5.801222 8.935333-5.801222 8.935333-5.801221 2.903559-12.54811 1.568346c-6.746888-1.335213-26.436269-4.857634-26.436269-4.857634s-1.649616.31367-2.51047-.941007c-.860853-1.254677-5.34323-1.890493-5.34323-1.890493s-5.173604-7.523821 1.178903-10.660513c0 0 .784522 1.72518 4.155846.55104s4.389082.936769 4.389082.936769 5.512857 1.097842 8.549169.707875 10.665257-.55104 11.449779-1.178379c.413957-.362473 1.042117-.326648 1.41214.080537 0 0 1.878612-.703636 2.506229-1.411511.627618-.707875 1.492712.784173 1.492712.784173s1.098331-.627339.784522-1.411512 1.017758-3.759791 1.017758-3.759791.627618-1.962552.237477-3.530898c-.39014-1.568346 1.959185-7.205913 1.959185-7.205913.030671-.951153-.075003-1.901799-.313809-2.823023-.394381-1.407273 2.968461-4.238773 2.968461-4.238773s3.290752-15.992889 10.270877-10.74105c6.980124 5.251839 5.835146 12.478947 5.835146 12.478947z" fill="#000" opacity=".1"/><path d="m425.878945 142.537761 2.121055 6.036012s-5.022658 18.6506-7.377029 22.571465-5.798964 8.935333-5.798964 8.935333-5.803206 2.903559-12.552403 1.568346-26.436828-4.857634-26.436828-4.857634-1.645939.31367-2.507087-.941007c-.861149-1.254677-5.340817-1.890493-5.340817-1.890493s-5.175374-7.523821 1.179307-10.660513c0 0 .78479 1.72518 4.157268.55104 3.372477-1.17414 4.390583.936769 4.390583.936769s5.514743 1.097842 8.552094.707875c3.03735-.389967 10.668906-.55104 11.453696-1.178379.414098-.362473 1.042474-.326648 1.412623.080537 0 0 1.879254-.703636 2.507087-1.411511.627832-.707875 1.493222.784173 1.493222.784173s1.098707-.627339.784791-1.411512c-.313917-.784173 1.018106-3.759791 1.018106-3.759791s.627832-1.962552.233316-3.530898 1.964097-7.205913 1.964097-7.205913c.030681-.951153-.075029-1.901799-.313916-2.823023-.394517-1.407273 2.969477-4.238773 2.969477-4.238773s3.291877-15.992889 10.27439-10.74105c6.982512 5.251839 5.815932 12.478947 5.815932 12.478947z" fill="#4c4981"/><path d="m375.253441 168c.101631.516555 2.399607 2.570855 1.563979 2.940391-.835627.369535-2.190699.147019-.937258 1.323176 1.253442 1.176156 1.129227 2.936417.310537 2.717874-.818689-.218542-2.190699-2.864894-2.190699-3.894031 0-1.029136 1.253441-3.08741 1.253441-3.08741z" fill="#000" opacity=".1"/><path d="m398 167s.438821 5.301277 4.036359 6.815928c3.597539 1.514651-4.036359-6.815928-4.036359-6.815928z" fill="#000" opacity=".1"/><path d="m406 166c.24936.066751 5.866771 2.406556 3.355031 3.769685-2.511739 1.363129-3.355031-3.769685-3.355031-3.769685z" fill="#000" opacity=".1"/><path d="m407 161s6.831334 1.986251 4.524062 3.67188c-2.307271 1.685629-4.524062-3.67188-4.524062-3.67188z" fill="#000" opacity=".1"/><g fill="#000" opacity=".1" transform="translate(368 85)"><path d="m25.0941935 10.5217778c.3774194-1.07666669 1.2580646-2.05200002 2.3609678-2.22511113 1.6354839-.25333334 3.0067742 1.18644444 3.9670968 2.53333333 1.0095237 1.4262817 1.9283506 2.9154824 2.7509677 4.4586667.2516129.4686666.6793548 1.9633333 1.1154839 2.2208889.5912903.3504444.8387097-.5742223 1.0903226-1.102 1.1993548-2.6853334.9393548-5.7633334 1.4593548-8.60488893.306129-1.65933334.8722581-3.37777778.9980645-5.02444445.1803226 2.04355556-.6164516 4.19266667-.9980645 6.27-.52 2.84155558-.26 5.91111108-1.4593548 8.60911108-.2348388.5277778-.4990323 1.4524445-1.0903226 1.102-.4193549-.2575555-.863871-1.7522222-1.1154839-2.2208889-.8226171-1.5431842-1.741444-3.0323849-2.7509677-4.4586666-.9603226-1.3553334-2.3316129-2.79511113-3.9670968-2.53333336-1.1196774.17311112-1.9835484 1.14844446-2.3609678 2.22511116-.1870812.5673368-.291606 1.1589533-.3103225 1.7564444-.0830583-1.0127839.0221812-2.0322818.3103225-3.0062222z"/><path d="m.85129032 3.09911111c.18802496.70901046.55830787 1.35561105 1.07354839 1.87466667 1.41741935 1.19066666 3.65258064.06755555 5.37612903.73044444.36064516.13511111.69193549.35044445 1.06096774.45177778 1.09451613.29133333 2.16387102-.44755556 3.12838712-1.03866667s2.3106451-1.026 3.1451613-.26177777c1.0987096 1.00066666.3019355 3.13711111 1.43 4.104.7129032.61222222 1.8451613.42222222 2.6377419.90777777.7925807.48555557 1.0316129 1.60022227 1.2329032 2.53333337.2012904.9331111.5996775 2.0351111 1.5264516 2.3137777.9267742.2786667 1.7822581-.3293333 2.6922581-.2955555.1887097 0 .4193548.0295555.5367742-.1097778.0274769-.0355293.0487483-.0755073.0629032-.1182222 0 .3166667 0 .6291111.0293549.9415555.0228813.1474081-.0100442.2980932-.0922581.4222223-.13.1351111-.3480645.114-.5367742.1055555-.91-.0295555-1.8158064.5615556-2.6922581.2997778-.8764516-.2617778-1.3251612-1.3595556-1.5264516-2.3137778-.2012903-.9542222-.4193548-2.0351111-1.2329032-2.5333333s-1.9248387-.2955556-2.6377419-.9077778c-1.1280645-.96688888-.3312904-3.10755554-1.43-4.10399999-.8387097-.76844444-2.1764516-.32933333-3.1451613.26177778s-2.03387099 1.33-3.12838712 1.03866667c-.36903225-.10133334-.70032258-.31666667-1.06096774-.45177778-1.72354839-.66288889-3.95870968.46022222-5.37612903-.73044445-.51445324-.51966287-.88460701-1.16603797-1.07354839-1.87466666-.38853807-.95523437-.65214298-1.95725351-.78419355-2.98088889-.02936879-.34892245-.02093201-.70002684.02516129-1.04711111.14601433.95375836.40070508 1.88739835.75903226 2.78244444z"/></g><path d="m99.6699662 325.023753s-17.5700214-1.100877-15.5005156 11.686567c0 0-.4155634 2.262195 1.5625185 3.28968 0 0 .0290894-.949776 1.8035452-.630306.6299871.109515 1.2700665.142835 1.9074361.099295.861212-.061857 1.6795948-.413452 2.3313108-1.001583s4.9410491-2.119728 6.8609521-10.50798c0 0 1.4212267-1.826161 1.363048-2.296732l-2.9629672 1.295149s1.0139748 2.22334.216093 4.071087c0 0-.0955796-3.989061-.6649015-3.885449-.1163577 0-1.5417403.768456-1.5417403.768456s1.7453664 3.885449.4155635 6.687289c0 0 .4986761-4.770468-.9724184-6.406673l-2.0778171 1.264929s2.0362607 3.997695.6565902 7.261472c0 0 .3532289-5.003594-1.0970875-6.950636l-1.8908135 1.532594s1.9157473 3.937255.7480141 6.644117c0 0-.1537584-5.823856-1.1552663-6.264207 0 0-1.6622537 1.515325-1.9074361 2.158583 0 0 1.3090248 2.862281.4945205 4.373289 0 0-.4986761-3.885449-.9059283-3.885449 0 0-1.6622537 2.568713-1.8201678 4.317165 0 0 .0706458-2.620519 1.4212269-4.580512-.9507103.187381-1.8276923.660177-2.5224699 1.359907 0 0 .2534936-1.817527 2.9297221-1.977262 0 0 1.363048-1.951359 1.7245882-2.067922 0 0-2.6596059-.233127-4.271992.509425 0 0 1.4212269-1.726866 4.7623568-.932508l1.8658798-1.584399s-3.5031997-.496474-4.9867611.051806c0 0 1.7079657-1.515325 5.4895928-.410131l2.0321052-1.26493s-2.9837454-.66916-4.7623569-.431716c0 0 1.8741911-1.049071 5.3607682.09066l1.4503163-.677795s-2.1858636-.431716-2.8258312-.518059c-.6399677-.086344-.6773684-.254713-.6773684-.254713 1.3858746-.240036 2.8086863-.075635 4.1099222.474888 0 0 3.0876362-1.208806 3.0377686-1.407396z" fill="#fe6503"/><ellipse cx="87" cy="341" fill="#fe6503" opacity=".1" rx="13" ry="2"/><path d="m133.796028 292.012709s-9.875084-.588021-8.69869 6.235477c-.121835.709628.232336 1.416159.878154 1.751814 0 0 0-.506352 1.014847-.334846.354523.056731.714334.074535 1.072838.053086.483107-.035774.941863-.223257 1.308946-.534936s2.767012-1.114791 3.860561-5.606621c0 0 .799451-.975953.766314-1.225045l-1.656894.698275s.567486 1.188294.120125 2.172413c0 0-.053849-2.127494-.372801-2.078493-.066276 0-.865727.408349-.865727.408349s.977567 2.041741.24025 3.56488c0 0 .277529-2.54401-.546775-3.417875l-1.180536.694192s1.143256 2.131578.368658 3.871141c0 0 .198828-2.670597-.617192-3.707802l-1.060412.816697s1.072838 2.102993.414223 3.544462c0 0-.086987-3.10753-.65033-3.340288-.402331.336321-.762492.718792-1.072839 1.139291 0 0 .737318 1.527223.281672 2.331669 0 0-.281672-2.070326-.509495-2.078493 0 0-.92786 1.367967-1.023131 2.311251.04295-.871251.317196-1.716115.795309-2.450089-.533617.102033-1.025732.35453-1.416644.72686 0 0 .144978-.971869 1.656893-1.053539 0 0 .762171-1.041288.969283-1.10254 0 0-1.495347-.126588-2.402496.26951 0 0 .799451-.9147 2.675883-.498185l1.047985-.845281s-1.967561-.265426-2.80015.028585c0 0 .960998-.816697 3.085964-.220508l1.139114-.669691c-.877899-.191767-1.777605-.268653-2.675882-.228675 0 0 1.056269-.563521 3.011403.044918l.828447-.359347s-1.24267-.240925-1.586476-.277676c-.343805-.036752-.381085-.134755-.381085-.134755.779384-.127801 1.579449-.040166 2.311366.253176 0 0 1.714885-.645191 1.66932-.751361z" fill="#fe6503"/><ellipse cx="127" cy="300.5" fill="#fe6503" opacity=".1" rx="7" ry="1.5"/><path d="m75.7333498 298.015932s-13.173395-.735802-11.60339 7.793578c-.1635063.887476.3093576 1.771432 1.1717822 2.19049 0 0 0-.634312 1.3502959-.422875.4731139.073865.9540955.09516 1.4326868.063432.6463209-.039767 1.2606265-.274505 1.7485187-.668142s3.7030148-1.412401 5.1448562-7.002803c0 0 1.0619276-1.217879 1.0207321-1.530806l-2.2565962.879579s.7552503 1.480061.1602046 2.710626c0 0-.0732364-2.655652-.4989229-2.592221-.0869682 0-1.153473.511678-1.153473.511678s1.3045231 2.579535.3204092 4.457098c0 0 .3707592-3.180017-.7323639-4.271033l-1.5608505.845749s1.5242323 2.66411.4897683 4.837685c0 0 .2654819-3.33648-.819332-4.65162l-1.418955 1.023356s1.4326868 2.626052.5584274 4.431726c0 0-.1144318-3.886217-.8651048-4.178001 0 0-1.2404413 1.01067-1.4326868 1.425087 0 0 .9841139 1.907165.3753365 2.913606 0 0-.3753365-2.587992-.6820139-2.600678 0 0-1.235864 1.71687-1.3731822 2.892462.0612718-1.086219.4289353-2.138754 1.0665049-3.053155-.7140717.123395-1.3730849.438106-1.8949915.904952 0 0 .1922455-1.21365 2.2016688-1.319369 0 0 1.0207322-1.298225 1.2907913-1.378571 0 0-1.9911142-.156463-3.2040919.3383 0 0 1.0665049-1.141761 3.5702739-.621626l1.4006459-1.057186s-2.6273554-.329842-3.739633.038059c0 0 1.2816368-1.014899 4.1195467-.274869l1.5242323-.845749s-2.238287-.448247-3.5702738-.287555c0 0 1.4052231-.701972 4.0188467.059203l1.0893912-.452476s-1.6386641-.296012-2.1192779-.342529c-.4806138-.046516-.5080774-.169149-.5080774-.169149 1.0383465-.162614 2.1052122-.054239 3.0805055.312927 0 0 2.3389871-.769632 2.2977916-.90918z" fill="#fe6503"/><ellipse cx="66.5" cy="308.5" fill="#fe6503" opacity=".1" rx="8.5" ry="1.5"/><ellipse cx="315" cy="362" fill="#fe6503" opacity=".1" rx="13" ry="2"/><path d="m306 351.713241s7.257236-.21376 9.442485-1.689908c2.185248-1.476148 11.160073-3.226553 11.704259-.871169s10.904986 11.780953 2.712429 11.845484c-8.192556.064531-19.03377-1.209957-21.219019-2.472346-2.185248-1.262389-2.640154-6.812061-2.640154-6.812061z" fill="#a8a8a8"/><path d="m330.009471 360.116117c-8.193067.06949-19.034957-1.302923-21.21609-2.657962-1.662423-1.037996-2.325692-4.746983-2.551033-6.458155h-.242348s.459186 5.976073 2.640319 7.335456 13.027275 2.727452 21.220342 2.662306c2.363957 0 3.180288-.868615 3.137771-2.171538-.323131.794783-1.228748 1.276864-2.988961 1.289893z" fill="#000" opacity=".2"/></g></svg>